<?xml version="1.0" encoding="UTF-8"?>
<svg id="Calque_1" data-name="Calque 1" xmlns="http://www.w3.org/2000/svg" width="96.1mm" height="61.1mm" viewBox="0 0 272.4 173.2">
  <defs>
    <style>
      .cls-1 {
        fill: #2478bd;
      }

      .cls-1, .cls-2, .cls-3 {
        stroke-width: 0px;
      }

      .cls-2 {
        fill: #464646;
      }

      .cls-3 {
        fill: #37629f;
      }
    </style>
  </defs>
  <path class="cls-1" d="m128.9,137.6v-56.1l-39.3-10.9v31.3s36.4,11.3,39.3,35.7"/>
  <path class="cls-3" d="m139.6,30.4c0,16.8-13.6,30.4-30.4,30.4s-30.4-13.6-30.4-30.4S92.4,0,109.2,0s30.4,13.6,30.4,30.4"/>
  <path class="cls-1" d="m0,0h35.3v89.9s-.6,49.8,53.1,49.8h40.5v33.3H0V0Z"/>
  <path class="cls-2" d="m150.3,49.1c-1.4,1.9,10.4-15.9,35.5-15.9,0,0,16.6-.7,30,9.3.4.3,22.3-24.7,22.3-24.7C238.2,17.9,224.8,0,185.9,0c0,0-15.6-.4-33.6,6,0,0,11.9,24.4-2,43.1"/>
  <path class="cls-2" d="m144.5,165.1c10.9,5,24.5,8.1,41.4,8.1,0,0,21.9,1.8,51-16.9v16.9h35.5v-103.6h-49.5v33.2h13.6s-10.8,37.4-50.6,37.4c0,0-25.4-.1-41.3-17.4v42.4Z"/>
</svg>