<?xml version="1.0" standalone="no"?>
<!DOCTYPE svg PUBLIC "-//W3C//DTD SVG 20010904//EN"
 "http://www.w3.org/TR/2001/REC-SVG-20010904/DTD/svg10.dtd">
<svg version="1.0" xmlns="http://www.w3.org/2000/svg"
 width="800.000000pt" height="800.000000pt" viewBox="0 0 800.000000 800.000000"
 preserveAspectRatio="xMidYMid meet">
<metadata>
Created by potrace 1.14, written by Peter Selinger 2001-2017
</metadata>
<g transform="translate(0.000000,800.000000) scale(0.100000,-0.100000)"
fill="#000000" stroke="none">
<path d="M0 6885 l0 -1114 22 -12 c25 -14 87 -79 88 -93 0 -4 11 -30 24 -56
13 -26 34 -85 46 -131 12 -46 27 -97 34 -114 44 -102 65 -172 86 -288 7 -37
16 -69 20 -72 4 -2 3 -24 -1 -47 -25 -120 -30 -179 -17 -195 26 -32 75 -43
191 -43 121 0 155 7 227 50 25 15 69 35 98 44 29 10 50 22 46 27 -3 5 1 9 9 9
10 0 13 7 10 20 -3 11 -10 20 -16 20 -6 0 -8 3 -4 6 3 4 20 -5 37 -20 17 -14
28 -26 23 -26 -4 0 5 -9 21 -19 29 -20 52 -49 43 -57 -2 -2 -15 6 -29 19 -34
32 -48 25 -37 -20 9 -41 4 -57 -14 -46 -7 4 -5 -2 3 -12 8 -10 10 -16 3 -12
-6 4 -13 3 -15 -1 -1 -5 -32 -29 -68 -53 -36 -24 -83 -62 -105 -85 -22 -22
-58 -47 -80 -54 -22 -7 -54 -21 -70 -30 -21 -12 -57 -18 -115 -19 -57 -1 -90
-7 -101 -17 -8 -8 -21 -14 -27 -14 -7 0 -12 -4 -12 -10 0 -5 -3 -9 -7 -8 -5 1
-24 -2 -43 -6 -19 -3 -62 -9 -95 -11 -33 -3 -86 -8 -117 -11 l-58 -6 0 -2189
0 -2189 4000 0 4000 0 0 2753 c0 2735 0 2752 -20 2765 -11 7 -20 18 -19 25 0
9 2 9 6 0 2 -7 11 -13 19 -13 11 0 14 187 14 1235 l0 1235 -300 0 -300 0 0
-24 c0 -14 5 -28 10 -31 6 -4 8 -21 4 -43 -7 -35 -6 -36 11 -22 17 14 18 13
12 -10 -4 -14 -7 -43 -7 -65 0 -22 -4 -46 -9 -54 -7 -11 -105 10 -534 118
l-525 131 -1006 0 c-553 0 -1007 -4 -1010 -8 -2 -4 2 -24 9 -45 7 -20 10 -37
7 -37 -3 0 1 -6 10 -12 24 -19 38 -187 38 -453 0 -122 5 -247 11 -279 6 -32
12 -126 14 -210 5 -241 21 -376 45 -376 5 0 17 -25 26 -55 14 -44 15 -62 7
-90 -10 -32 -9 -38 10 -55 11 -11 31 -20 44 -20 13 0 23 -4 23 -10 0 -5 5 -10
11 -10 6 0 24 -11 40 -24 28 -24 28 -25 25 -118 -2 -51 -6 -115 -10 -143 -3
-27 -11 -90 -16 -140 -6 -49 -15 -121 -20 -160 -47 -353 -49 -375 -35 -375 5
0 4 -4 -4 -9 -10 -6 -12 -20 -7 -47 5 -29 4 -35 -4 -24 -8 11 -9 1 -4 -37 4
-29 3 -53 -2 -53 -5 0 -10 -28 -10 -62 -2 -77 -33 -250 -48 -264 -6 -5 -36
-21 -66 -34 -30 -13 -62 -30 -71 -37 -14 -12 -22 -11 -52 3 -34 16 -39 16
-142 -10 -58 -14 -111 -23 -117 -20 -7 5 -8 2 -3 -6 6 -10 1 -12 -19 -8 -15 3
-24 3 -21 -1 3 -3 -16 -11 -42 -17 -83 -21 -261 -72 -271 -78 -14 -8 -64 34
-59 48 3 8 -3 12 -16 11 -12 -2 -21 -8 -19 -14 1 -7 -2 -9 -9 -5 -9 5 -10 2
-6 -9 4 -11 1 -17 -7 -17 -8 0 -11 10 -8 30 3 19 10 30 21 30 9 0 12 3 6 8 -5
4 -12 14 -14 22 -2 8 -6 26 -10 40 -6 24 -31 40 -31 20 0 -6 5 -10 10 -10 6 0
2 -8 -7 -18 -10 -11 -21 -17 -25 -15 -5 2 -8 0 -8 -5 0 -6 7 -12 15 -16 9 -3
15 0 15 9 0 8 7 15 15 15 18 0 19 -5 4 -32 -9 -16 -8 -19 2 -13 7 5 10 4 5 -3
-4 -6 -14 -8 -23 -5 -26 10 -73 65 -66 77 4 6 -1 5 -10 -3 -9 -7 -17 -10 -17
-5 -1 5 -7 -2 -15 -16 -8 -14 -14 -46 -13 -72 1 -43 7 -53 31 -49 4 0 8 -6 8
-14 3 -35 25 -81 52 -111 15 -16 35 -25 59 -26 37 -1 56 -20 64 -62 4 -25 -35
-76 -59 -76 -9 0 -19 -4 -22 -10 -3 -5 -14 -10 -23 -10 -27 0 -43 -15 -36 -33
3 -9 12 -17 20 -17 8 0 14 -4 14 -8 0 -4 16 -9 37 -10 20 -2 40 -5 45 -8 4 -3
8 -1 8 4 0 6 6 12 14 15 8 3 13 -1 12 -11 -1 -16 3 -18 41 -21 14 -1 14 -4 -5
-21 -24 -23 -29 -40 -10 -40 6 0 3 -7 -8 -15 -19 -14 -18 -15 4 -21 18 -5 20
-9 10 -15 -11 -7 -10 -11 2 -19 10 -6 11 -10 3 -10 -7 0 -13 -5 -13 -11 0 -6
8 -8 18 -5 15 5 15 4 -2 -8 -10 -8 -15 -19 -11 -25 3 -6 -1 -11 -10 -11 -11 0
-15 -7 -13 -22 2 -13 -4 -28 -12 -35 -11 -9 -12 -12 -2 -13 7 0 2 -10 -12 -23
-34 -31 -44 -74 -19 -80 13 -3 10 -5 -8 -6 -30 -1 -63 -31 -42 -38 10 -4 10
-10 2 -25 -8 -15 -8 -22 0 -27 7 -5 2 -12 -13 -20 -26 -15 -44 -60 -27 -70 6
-4 0 -15 -15 -26 -16 -12 -21 -21 -14 -25 8 -5 6 -12 -5 -24 -12 -12 -13 -16
-3 -16 8 0 9 -3 3 -8 -10 -6 -56 -104 -52 -109 3 -3 260 67 327 89 79 26 210
85 271 123 24 15 37 20 29 12 -25 -26 -191 -113 -260 -136 -36 -13 -121 -38
-190 -56 -143 -38 -191 -55 -172 -62 7 -3 34 0 60 6 88 21 257 41 332 39 71
-2 71 -2 15 -5 -85 -4 -291 -31 -350 -46 -80 -20 -65 -33 28 -25 45 3 120 6
167 6 70 -1 61 -2 -55 -10 -112 -7 -145 -12 -165 -27 -14 -11 -24 -24 -23 -30
2 -6 -7 -12 -20 -12 -16 -1 -18 -2 -4 -6 9 -2 17 -8 17 -12 0 -5 19 -11 42
-14 36 -5 88 6 148 30 25 11 65 10 72 -1 4 -7 13 -4 25 6 37 33 188 -5 275
-68 83 -62 107 -107 72 -141 -10 -10 -14 -27 -12 -44 3 -15 1 -26 -4 -23 -4 3
-8 0 -8 -6 0 -6 -4 -9 -9 -6 -5 4 -11 1 -13 -5 -2 -6 -15 -12 -28 -13 -19 -1
-25 -7 -24 -24 0 -16 -5 -22 -21 -22 -11 0 -25 4 -30 9 -17 16 -60 18 -57 3 1
-8 -2 -11 -7 -8 -5 4 -13 1 -18 -6 -4 -7 -17 -20 -27 -28 -17 -13 -19 -13 -14
0 2 8 -5 23 -16 33 -12 10 -15 16 -8 12 6 -3 12 -1 12 4 0 6 -4 11 -10 11 -5
0 -7 7 -4 15 4 8 10 12 15 9 5 -3 7 -9 4 -14 -10 -16 12 -20 31 -6 15 11 16
17 6 28 -9 11 -23 13 -56 8 -24 -3 -53 -3 -66 2 -34 13 -78 -17 -75 -53 2 -20
-1 -26 -11 -22 -27 10 -13 -13 34 -59 59 -57 83 -66 101 -35 7 12 10 19 6 15
-4 -4 -26 7 -48 25 -23 17 -44 32 -48 32 -12 0 -19 11 -24 34 -6 33 10 25 51
-24 20 -25 39 -43 42 -40 3 3 20 -8 37 -25 l32 -31 42 35 c48 41 101 55 136
36 19 -10 37 -10 90 0 68 13 140 3 174 -24 8 -6 37 -20 65 -32 79 -32 101 -75
100 -199 -1 -35 -9 -70 -18 -76 -4 -4 -21 -2 -37 4 -15 6 -30 9 -33 6 -5 -5
-16 -53 -19 -84 -1 -12 -11 -21 -24 -23 -13 -2 -23 -7 -23 -12 0 -5 -6 -7 -14
-4 -8 3 -17 1 -21 -5 -9 -16 -35 -13 -35 4 0 22 -38 18 -50 -5 -9 -17 -14 -18
-35 -8 -14 6 -25 15 -25 20 0 9 -29 6 -46 -4 -6 -4 -11 -1 -11 7 0 8 4 12 8 9
4 -2 10 0 13 5 7 10 -23 20 -42 14 -6 -3 -10 -9 -6 -14 3 -5 0 -9 -5 -9 -15 0
-14 13 2 29 10 11 9 13 -6 7 -10 -3 -23 -6 -28 -6 -6 0 -7 -5 -3 -11 5 -8 -1
-10 -20 -7 -18 4 -26 1 -26 -8 0 -8 5 -14 11 -14 5 0 7 -5 4 -10 -5 -8 -12 -7
-23 2 -11 9 -14 9 -9 1 5 -7 -1 -21 -13 -33 -11 -11 -20 -15 -20 -10 0 6 -4
10 -9 10 -5 0 -7 -8 -4 -19 3 -11 -2 -21 -11 -24 -9 -4 -16 -2 -16 3 0 15 -22
7 -43 -15 -10 -11 -16 -15 -13 -9 3 7 -1 14 -9 18 -16 6 -47 -31 -39 -48 3 -6
0 -4 -8 5 -7 9 -17 17 -23 19 -16 5 -41 54 -37 73 5 24 22 21 22 -4 0 -11 5
-17 10 -14 5 3 10 -3 10 -15 0 -14 -4 -19 -12 -14 -7 4 -9 3 -5 -1 4 -5 14
-10 21 -11 20 -3 6 49 -21 80 -27 31 -28 34 -7 57 8 9 15 32 15 50 -1 35 -1
69 -1 129 0 47 -15 58 -28 21 -6 -17 -15 -31 -20 -31 -6 0 -7 -14 -3 -32 11
-48 1 -159 -15 -176 -8 -7 -14 -17 -14 -22 0 -5 -10 -19 -22 -30 -13 -12 -23
-25 -23 -29 0 -4 -8 -16 -18 -26 -13 -13 -15 -20 -7 -25 7 -4 8 -10 3 -13 -16
-10 -55 24 -50 42 2 9 -1 22 -7 28 -19 21 -31 37 -45 66 -8 15 -18 27 -22 27
-5 0 -6 6 -3 14 3 9 -3 17 -16 21 -12 4 -19 12 -16 20 2 7 -2 16 -10 19 -9 3
-12 11 -8 17 4 8 -1 7 -16 -1 -12 -6 -28 -9 -35 -6 -25 9 -24 -7 2 -35 15 -15
32 -26 37 -23 6 3 2 -2 -8 -10 -11 -9 -16 -16 -10 -16 5 0 14 -15 20 -34 9
-31 8 -36 -10 -44 -20 -9 -20 -10 5 -22 20 -9 25 -17 21 -36 -2 -14 0 -24 7
-24 6 0 11 -4 11 -8 0 -5 -14 -6 -31 -4 -22 3 -30 1 -25 -7 4 -6 11 -9 16 -6
9 5 22 -20 14 -28 -8 -8 -44 4 -44 15 0 5 -4 7 -9 3 -5 -3 -13 0 -17 6 -4 8
-3 9 4 5 7 -4 12 -3 12 3 0 15 -39 33 -56 27 -10 -4 -13 -13 -9 -26 9 -27 -11
-50 -37 -45 -25 5 -20 -1 -52 62 -14 29 -32 56 -39 60 -22 13 -28 68 -12 114
8 22 12 45 9 50 -3 5 0 9 6 9 7 0 9 7 6 16 -3 8 -2 12 3 9 5 -3 12 -1 15 4 4
5 1 13 -4 16 -8 5 -7 12 3 23 8 10 18 27 21 39 4 13 18 24 37 28 49 11 66 60
24 71 -28 7 -55 44 -33 44 9 0 9 3 0 12 -7 7 -12 21 -12 32 0 18 -1 19 -20 1
-14 -13 -20 -14 -20 -5 0 7 -3 10 -6 7 -4 -4 -1 -13 6 -22 8 -10 9 -19 3 -27
-6 -7 -10 -25 -9 -40 l2 -28 -27 26 c-15 15 -29 21 -33 16 -3 -6 -1 -12 6 -14
9 -3 9 -6 0 -12 -8 -5 -16 3 -23 23 -7 20 -17 30 -28 29 -11 -2 -15 3 -13 17
5 28 9 30 34 18 18 -8 31 -4 65 17 29 19 51 25 72 22 27 -4 28 -6 16 -19 -19
-18 -19 -19 5 -19 11 0 20 3 20 7 0 4 6 7 13 6 34 -1 48 4 45 18 -2 9 8 21 21
28 42 21 48 43 22 71 l-23 25 20 12 c30 19 9 39 -38 39 -31 0 -46 -8 -89 -49
-28 -26 -51 -54 -51 -60 0 -9 -9 -11 -28 -6 -20 4 -33 1 -42 -10 -7 -8 -19
-15 -27 -15 -8 0 -11 -5 -7 -12 5 -7 3 -8 -6 -3 -7 4 -16 2 -21 -6 -4 -8 -14
-14 -21 -15 -36 -3 -40 -5 -34 -19 3 -8 0 -15 -7 -16 -7 0 -22 -2 -34 -3 -13
-2 -23 1 -23 6 0 4 -9 8 -20 8 -11 0 -20 5 -20 11 0 8 -5 8 -15 -1 -8 -7 -15
-10 -15 -7 0 3 -15 0 -32 -7 -28 -12 -48 -13 -85 -5 -4 1 -19 -2 -33 -8 -66
-27 -71 -27 -64 3 5 19 4 25 -5 20 -6 -4 -11 -11 -11 -16 0 -14 -61 -102 -67
-96 -3 2 3 18 13 35 10 17 16 33 13 35 -14 14 -47 -10 -68 -49 -13 -24 -44
-66 -69 -92 -35 -36 -39 -40 -20 -13 104 145 118 170 93 170 -29 0 -85 -67
-150 -180 -82 -144 -86 -149 -109 -174 l-18 -21 11 23 c7 12 39 65 72 118 73
116 83 138 48 109 -13 -11 0 6 29 38 53 59 64 87 37 87 -12 0 -13 4 -5 19 7
14 20 19 42 18 18 0 41 3 50 7 13 6 18 4 18 -8 0 -17 15 -22 25 -7 3 6 14 8
25 6 11 -2 45 7 75 20 54 24 74 42 35 32 -10 -3 -21 0 -23 6 -2 6 -24 10 -52
8 -65 -3 -55 6 14 12 30 3 60 12 70 21 15 15 14 17 -7 22 -28 8 -28 17 2 34
21 11 28 10 54 -9 17 -11 39 -21 50 -21 12 0 24 -4 27 -10 3 -5 15 -10 26 -10
21 0 102 -39 107 -53 2 -4 8 -4 14 -1 6 4 14 0 19 -7 7 -11 9 -10 9 4 0 11 4
15 12 11 7 -4 8 -3 4 5 -4 6 -2 18 4 26 6 8 9 19 6 24 -4 5 0 13 8 18 9 5 31
31 50 58 26 35 32 52 25 61 -12 14 -28 10 -94 -24 -22 -12 -56 -22 -75 -23
-40 -2 -90 15 -90 31 0 6 -3 9 -7 7 -5 -3 -17 4 -27 14 -17 17 -17 19 -2 25 9
3 16 10 16 16 0 5 -4 7 -9 4 -13 -9 -7 49 7 67 11 13 9 18 -10 31 -12 9 -26
16 -30 16 -14 0 -69 60 -67 73 1 6 -1 30 -6 52 -5 22 -8 48 -7 58 0 9 -3 17
-8 17 -5 0 -7 7 -3 16 5 13 7 13 14 2 7 -10 9 -10 10 2 1 8 0 23 -1 34 -1 13
2 16 12 10 7 -4 5 2 -5 14 -10 11 -21 40 -24 64 -2 24 -9 52 -13 63 -5 11 -11
31 -13 45 -4 25 -4 25 -6 -2 -2 -40 -21 -45 -21 -6 0 41 -21 90 -36 84 -6 -2
-9 8 -6 28 2 23 1 27 -7 16 -17 -24 -24 -4 -11 34 13 39 30 57 30 31 0 -9 4
-14 9 -11 5 3 11 -13 14 -35 7 -53 24 -71 19 -21 -2 21 2 58 8 83 12 41 13 42
21 20 5 -13 7 -38 3 -56 -4 -21 -1 -37 9 -46 7 -8 16 -19 18 -25 6 -17 49 2
49 21 0 19 25 47 34 38 3 -4 6 -1 6 6 0 7 -6 11 -14 8 -19 -7 -46 34 -46 69
l0 27 35 -34 c19 -19 35 -40 35 -48 0 -8 7 -11 20 -8 11 3 20 1 20 -5 0 -6 7
-7 16 -4 8 3 12 2 9 -4 -3 -6 6 -15 21 -20 32 -13 40 -4 50 53 4 24 2 43 -5
50 -6 6 -11 17 -11 24 0 7 -9 22 -20 33 -11 11 -17 26 -14 35 3 8 -4 31 -17
51 -12 21 -23 47 -24 58 -2 21 -29 137 -45 189 -10 32 0 67 28 98 15 15 18 30
14 72 -2 29 -8 57 -13 62 -4 6 -10 23 -13 39 -3 15 -10 34 -16 41 -6 7 -7 20
-4 29 4 10 -2 24 -15 35 -23 20 -28 51 -9 51 6 0 20 -8 31 -17 18 -17 19 -17
32 0 11 16 12 10 8 -40 -4 -44 -2 -62 9 -70 12 -11 13 -5 8 39 -4 29 -5 61 -2
71 3 12 -6 29 -27 47 -19 18 -31 39 -31 54 0 14 -6 26 -12 26 -10 0 -10 3 0 9
16 10 11 47 -5 44 -7 -2 -12 5 -12 15 -1 56 -10 107 -20 110 -13 4 -15 32 -2
32 5 0 12 19 16 42 15 86 110 297 206 455 37 61 65 114 62 117 -4 3 0 6 8 6
11 0 11 2 -1 10 -13 9 -13 10 0 10 8 0 26 23 40 51 13 28 32 56 42 63 10 6 18
15 19 21 1 18 118 115 139 115 11 0 27 -12 37 -26 14 -22 17 -61 21 -251 4
-189 2 -224 -9 -217 -12 7 -12 5 0 -9 9 -11 10 -17 2 -17 -6 0 -11 -5 -11 -11
0 -5 5 -7 10 -4 6 3 10 1 10 -4 0 -6 -4 -11 -10 -11 -5 0 -10 -19 -10 -42 0
-28 3 -38 9 -30 6 10 10 7 15 -12 9 -36 38 -40 157 -21 148 24 165 34 185 104
9 31 31 82 48 113 25 47 39 60 74 73 75 29 73 23 66 345 -5 199 -4 292 4 306
6 12 34 28 69 39 73 24 159 74 171 100 5 12 6 30 1 43 -5 13 -7 28 -4 33 7 10
-13 4 -62 -17 -37 -17 -74 -11 -115 18 -23 16 -28 27 -28 64 0 43 0 44 34 44
l34 0 -16 43 c-15 40 -62 108 -62 90 0 -4 -9 7 -21 26 -14 24 -21 52 -21 90 0
31 -7 68 -14 84 -21 40 -20 112 4 302 29 233 48 283 96 252 19 -13 31 -14 57
-7 19 6 62 10 96 10 51 0 66 4 83 22 26 28 25 40 -2 65 -16 15 -46 25 -102 32
-43 6 -82 14 -87 17 -21 13 -69 -8 -75 -32 -4 -14 -11 -23 -16 -22 -5 2 -8 6
-6 9 2 3 -13 24 -33 47 -27 32 -38 55 -42 90 -3 27 -1 50 5 53 6 4 5 9 -3 12
-8 3 1 6 19 6 17 1 32 5 32 10 0 5 14 12 31 16 30 7 49 35 49 76 0 19 -29 19
-1980 19 l-1980 0 0 -1115z m5230 1024 c0 -5 -4 -9 -8 -9 -5 0 -9 7 -9 15 0 8
4 12 9 9 4 -3 8 -9 8 -15z m-155 -53 c7 -36 -1 -76 -14 -76 -5 0 -9 25 -9 55
0 61 14 74 23 21z m-39 -1 c8 -21 -6 -41 -17 -24 -12 19 -11 39 1 39 6 0 13
-7 16 -15z m1771 -82 c-9 -9 -20 -13 -24 -9 -4 4 -1 11 7 16 25 16 35 11 17
-7z m-1597 -33 c11 -8 8 -9 -12 -4 -36 8 -37 -12 -2 -20 26 -7 26 -8 19 -64
-4 -31 -8 -58 -10 -60 -1 -2 -15 0 -30 4 -27 7 -27 7 -20 73 4 36 9 69 12 74
6 10 25 9 43 -3z m1720 6 c0 -2 -7 -7 -16 -10 -8 -3 -12 -2 -9 4 6 10 25 14
25 6z m-1891 -85 c10 -6 12 -23 6 -68 -9 -78 -15 -86 -48 -74 -29 11 -32 24
-21 105 6 38 10 46 28 46 11 0 27 -4 35 -9z m107 -83 c4 -7 3 -8 -4 -4 -7 4
-12 2 -12 -5 0 -7 -3 -10 -6 -6 -6 5 3 27 11 27 2 0 7 -5 11 -12z m68 -33 c-4
-8 -8 -15 -10 -15 -2 0 -4 7 -4 15 0 8 4 15 10 15 5 0 7 -7 4 -15z m-234 -115
c0 -5 -5 -10 -11 -10 -5 0 -7 5 -4 10 3 6 8 10 11 10 2 0 4 -4 4 -10z m33 -60
c-10 -80 -10 -80 -43 -68 -24 8 -30 16 -30 38 0 16 7 30 15 34 8 3 15 12 15
21 0 8 5 15 10 15 6 0 10 8 10 17 0 15 2 14 14 -2 8 -12 12 -33 9 -55z m-2269
1 c3 -5 -1 -14 -10 -21 -11 -10 -18 -10 -27 -1 -9 9 -9 14 3 21 19 12 27 12
34 1z m4223 -87 c-3 -3 -12 -4 -19 -1 -8 3 -5 6 6 6 11 1 17 -2 13 -5z m3 -29
c0 -8 -2 -15 -4 -15 -2 0 -6 7 -10 15 -3 8 -1 15 4 15 6 0 10 -7 10 -15z
m-2005 -55 c3 -6 -1 -7 -9 -4 -18 7 -21 14 -7 14 6 0 13 -4 16 -10z m-5 -31
c0 -5 5 -7 10 -4 13 8 13 -36 0 -70 -20 -51 -60 -41 -60 16 0 22 4 26 24 24
22 -3 24 -1 16 21 -6 15 -6 24 0 24 6 0 10 -5 10 -11z m2610 -69 c0 5 5 10 10
10 6 0 10 -9 10 -21 0 -11 5 -17 10 -14 6 4 8 11 5 16 -4 5 3 5 18 0 14 -6 29
-7 33 -3 5 4 2 -1 -5 -10 -12 -15 -11 -18 3 -18 9 0 16 6 16 13 1 6 6 2 14
-11 11 -21 14 -22 26 -7 12 14 14 13 28 -6 11 -16 17 -18 22 -8 6 9 12 8 25
-4 9 -10 21 -14 27 -11 6 4 8 2 4 -4 -3 -6 -2 -13 4 -17 5 -3 10 -1 10 4 0 6
4 11 8 11 5 0 9 -7 9 -15 0 -16 -18 -20 -31 -7 -4 4 -11 7 -14 8 -49 5 -80 18
-75 30 3 8 1 14 -5 14 -6 0 -12 -6 -15 -12 -4 -10 -7 -10 -18 0 -7 6 -21 12
-30 12 -9 0 -22 7 -29 15 -10 12 -15 12 -38 -3 -14 -9 -23 -11 -19 -4 5 7 3
12 -7 12 -9 0 -16 4 -16 10 0 5 -6 7 -14 4 -10 -4 -14 1 -13 15 1 19 3 19 24
6 13 -9 23 -11 23 -5z m-659 -27 c20 5 26 -7 9 -18 -15 -9 -40 14 -39 34 1 13
2 12 6 -2 3 -13 11 -17 24 -14z m389 -27 c0 -3 -4 -8 -10 -11 -5 -3 -10 -1
-10 4 0 6 5 11 10 11 6 0 10 -2 10 -4z m-254 -15 c11 9 14 8 14 -6 0 -19 -32
-17 -36 3 -1 7 0 8 3 2 3 -8 9 -7 19 1z m-123 -39 c-6 -15 -5 -15 10 -3 10 7
17 9 17 3 0 -13 -20 -20 -42 -14 -14 3 -15 8 -7 23 12 23 31 16 22 -9z m204 6
c-3 -8 -6 -5 -6 6 -1 11 2 17 5 13 3 -3 4 -12 1 -19z m157 -35 c16 -9 17 -11
2 -16 -10 -4 -15 -3 -11 3 3 6 -1 10 -9 10 -9 0 -16 8 -16 18 0 10 3 13 8 6 4
-6 15 -15 26 -21z m156 12 c11 -13 10 -14 -4 -9 -9 3 -16 10 -16 15 0 13 6 11
20 -6z m43 -8 c-4 -6 0 -8 10 -4 9 3 23 0 31 -8 7 -8 17 -11 21 -7 5 4 5 2 1
-5 -7 -13 -36 -7 -36 8 0 6 -8 5 -19 0 -16 -9 -20 -7 -23 13 -4 17 -1 23 9 19
7 -3 10 -10 6 -16z m-473 -3 c0 -2 -7 -4 -15 -4 -8 0 -15 4 -15 10 0 5 7 7 15
4 8 -4 15 -8 15 -10z m307 -26 c-3 -8 -6 -5 -6 6 -1 11 2 17 5 13 3 -3 4 -12
1 -19z m-407 -8 c0 -19 -18 -19 -23 -1 -3 14 -1 18 9 14 8 -3 14 -9 14 -13z
m773 -13 c4 3 7 -2 7 -11 0 -12 -5 -16 -16 -12 -9 3 -19 6 -23 6 -4 0 -7 9 -7
20 0 17 2 18 16 5 9 -8 20 -12 23 -8z m-740 -7 c-3 -11 -7 -20 -9 -20 -2 0 -4
9 -4 20 0 11 4 20 9 20 5 0 7 -9 4 -20z m474 -2 c-3 -8 -6 -5 -6 6 -1 11 2 17
5 13 3 -3 4 -12 1 -19z m325 -2 c7 4 8 2 4 -4 -3 -6 2 -16 11 -22 17 -11 17
-11 0 -6 -10 3 -27 6 -38 6 -17 0 -18 3 -8 22 8 14 14 18 17 10 2 -6 9 -9 14
-6z m-692 -27 c0 -18 -33 -5 -36 13 -2 15 1 16 17 8 10 -6 19 -15 19 -21z
m140 23 c0 -5 -7 -9 -15 -9 -8 0 -15 4 -15 9 0 4 7 8 15 8 8 0 15 -4 15 -8z
m62 1 c-6 -2 -10 -9 -7 -14 4 -5 -1 -6 -9 -3 -24 9 -19 24 7 23 12 0 16 -3 9
-6z m35 -35 c-3 -7 -5 -2 -5 12 0 14 2 19 5 13 2 -7 2 -19 0 -25z m253 8 c0
-6 5 -4 10 4 8 13 10 12 10 -2 0 -24 -27 -23 -40 2 -9 16 -8 18 5 14 8 -4 15
-11 15 -18z m-465 5 c3 -5 1 -12 -5 -16 -5 -3 -10 1 -10 9 0 18 6 21 15 7z
m-205 -11 c0 13 1 13 10 0 15 -24 12 -32 -10 -20 -11 6 -20 16 -20 23 0 7 4 6
10 -3 9 -13 10 -13 10 0z m766 -22 c2 -14 -3 -15 -27 -6 -16 5 -29 16 -29 23
0 19 53 3 56 -17z m-706 -10 c0 -5 -7 -3 -15 6 -8 8 -15 18 -15 22 0 3 7 1 15
-6 8 -7 15 -17 15 -22z m266 3 c28 5 53 -2 48 -15 -8 -21 -68 -5 -72 19 -2 15
-1 16 6 7 5 -7 13 -12 18 -11z m208 -3 c-3 -4 -11 -5 -19 -1 -21 7 -19 12 4
10 11 0 18 -5 15 -9z m-358 -18 c8 0 14 -5 14 -10 0 -7 -6 -7 -19 -1 -10 6
-21 7 -25 4 -3 -3 -6 -2 -6 4 0 15 14 26 18 14 2 -6 10 -11 18 -11z m399 10
c3 -5 -3 -10 -15 -10 -12 0 -18 5 -15 10 3 6 10 10 15 10 5 0 12 -4 15 -10z
m65 -9 c0 -13 -6 -19 -20 -18 -18 1 -18 2 -3 19 20 23 23 23 23 -1z m267 -11
c-1 -22 -17 -28 -17 -7 0 12 9 27 16 27 2 0 2 -9 1 -20z m-212 0 c-3 -5 -2
-10 3 -10 5 0 9 -6 9 -14 0 -8 -6 -12 -14 -9 -7 3 -13 9 -13 15 0 5 -4 6 -10
3 -5 -3 -10 -2 -10 4 0 5 8 12 18 14 9 3 18 5 20 6 2 0 0 -3 -3 -9z m142 4
c-3 -3 -12 -4 -19 -1 -8 3 -5 6 6 6 11 1 17 -2 13 -5z m110 -16 c-3 -8 -6 -5
-6 6 -1 11 2 17 5 13 3 -3 4 -12 1 -19z m-884 -11 c-1 -4 -7 -15 -13 -25 -10
-15 -11 -14 -7 6 3 12 1 22 -4 22 -5 0 -9 -6 -10 -12 0 -9 -2 -9 -5 -2 -3 6
-17 10 -32 8 -15 -2 -19 -1 -9 2 9 3 15 9 13 13 -3 4 12 5 32 2 20 -4 36 -10
35 -14z m716 -16 c7 -13 6 -18 -5 -18 -7 0 -12 2 -9 5 2 3 0 14 -6 25 -8 14
-8 18 0 13 6 -4 15 -15 20 -25z m-493 -8 c-3 -3 -16 -1 -28 6 -13 6 -15 9 -6
7 10 -3 21 0 25 6 5 9 8 9 11 -1 2 -7 1 -15 -2 -18z m563 1 c5 3 11 -6 14 -19
4 -25 4 -25 -20 -10 -13 9 -29 13 -35 9 -6 -4 -8 -3 -4 4 3 6 2 13 -4 17 -5 3
-10 11 -10 17 0 6 11 3 25 -6 14 -9 29 -14 34 -12z m-344 6 c3 -6 -1 -7 -9 -4
-18 7 -21 14 -7 14 6 0 13 -4 16 -10z m98 -26 c-3 -9 -12 -10 -34 -2 -23 8
-27 13 -19 23 13 16 60 -3 53 -21z m-260 6 c-3 -11 -7 -20 -9 -20 -2 0 -4 9
-4 20 0 11 4 20 9 20 5 0 7 -9 4 -20z m-186 4 c-3 -3 -12 -4 -19 -1 -8 3 -5 6
6 6 11 1 17 -2 13 -5z m267 -6 c-3 -4 -11 -5 -19 -1 -21 7 -19 12 4 10 11 0
18 -5 15 -9z m494 -28 c7 -21 -20 -6 -37 21 l-16 24 24 -16 c14 -9 27 -22 29
-29z m-281 8 c-3 -8 -6 -5 -6 6 -1 11 2 17 5 13 3 -3 4 -12 1 -19z m326 -12
c4 4 7 2 7 -4 0 -6 6 -9 14 -6 7 3 16 -2 19 -10 8 -20 8 -20 -37 -1 -26 11
-36 21 -36 38 l1 22 12 -23 c7 -12 16 -19 20 -16z m-973 8 c0 -2 -7 -4 -15 -4
-8 0 -15 4 -15 10 0 5 7 7 15 4 8 -4 15 -8 15 -10z m730 2 l45 -15 -41 0 c-22
-1 -49 6 -60 14 -25 19 -4 19 56 1z m-408 -24 c-6 -2 -10 -7 -8 -11 3 -4 -8
-5 -25 -3 -22 3 -27 7 -19 17 6 7 22 10 38 7 15 -3 21 -7 14 -10z m202 6 c-5
-8 -2 -9 9 -5 11 4 17 1 17 -8 0 -8 -9 -13 -20 -12 -20 1 -27 17 -13 30 10 11
15 8 7 -5z m-374 -28 c0 -5 -6 -12 -12 -16 -7 -4 -10 -4 -6 1 4 4 3 14 -4 22
-8 11 -7 12 6 7 9 -3 16 -10 16 -14z m455 11 c3 -5 1 -12 -5 -16 -5 -3 -10 1
-10 9 0 18 6 21 15 7z m215 -1 c0 -5 -4 -10 -10 -10 -5 0 -10 5 -10 10 0 6 5
10 10 10 6 0 10 -4 10 -10z m17 -12 c-3 -8 -6 -5 -6 6 -1 11 2 17 5 13 3 -3 4
-12 1 -19z m-637 2 c0 -5 -4 -10 -9 -10 -6 0 -13 5 -16 10 -3 6 1 10 9 10 9 0
16 -4 16 -10z m454 -7 c-5 -5 -12 -12 -16 -18 -4 -6 -8 -2 -8 8 0 9 7 17 17
17 9 0 12 -3 7 -7z m213 -15 c-3 -8 -6 -5 -6 6 -1 11 2 17 5 13 3 -3 4 -12 1
-19z m63 -3 c8 -10 8 -15 -1 -21 -8 -5 -9 -3 -4 6 6 10 4 12 -8 7 -10 -3 -17
-2 -17 4 0 6 -4 7 -10 4 -5 -3 -10 0 -10 8 0 18 33 12 50 -8z m-240 6 c0 -6
-4 -13 -10 -16 -5 -3 -10 1 -10 9 0 9 5 16 10 16 6 0 10 -4 10 -9z m23 -14 c3
-8 -1 -14 -9 -14 -15 0 -18 9 -7 20 9 9 10 9 16 -6z m56 -9 c10 -3 9 -7 -5
-18 -10 -8 -15 -10 -11 -4 4 7 0 14 -8 18 -8 3 -15 11 -15 17 0 8 4 8 13 2 6
-6 18 -12 26 -15z m223 7 c3 3 5 -2 5 -10 0 -22 -34 -18 -40 5 -4 16 -2 18 13
10 9 -5 19 -7 22 -5z m-649 -24 c2 -10 -1 -18 -9 -18 -7 0 -11 4 -8 8 2 4 0
10 -6 14 -15 9 -12 25 4 19 8 -3 16 -13 19 -23z m156 11 c13 -13 12 -14 -9 -7
-33 10 -45 22 -23 22 10 0 24 -7 32 -15z m41 -8 c0 -21 -17 -17 -23 5 -3 14
-1 18 9 14 8 -3 14 -11 14 -19z m-260 6 c0 -5 -4 -10 -10 -10 -5 0 -10 5 -10
10 0 6 5 10 10 10 6 0 10 -4 10 -10z m599 -43 l-2 -22 -4 23 c-2 12 -8 20 -13
17 -4 -3 -11 2 -14 10 -4 13 -2 14 14 5 12 -6 19 -20 19 -33z m-42 1 c-3 -8
-6 -5 -6 6 -1 11 2 17 5 13 3 -3 4 -12 1 -19z m85 4 c-6 -2 -12 -8 -12 -13 0
-6 7 -6 19 0 16 9 20 6 24 -17 5 -24 4 -25 -8 -8 -8 10 -18 15 -24 12 -5 -4
-15 2 -20 13 -15 28 -14 30 11 23 12 -3 17 -7 10 -10z m-898 -1 c3 -5 0 -14
-7 -19 -10 -8 -13 -6 -14 9 -2 19 11 26 21 10z m-1887 -16 c0 -8 -4 -12 -9 -9
-5 3 -6 10 -3 15 9 13 12 11 12 -6z m2830 -7 c-3 -8 -6 -5 -6 6 -1 11 2 17 5
13 3 -3 4 -12 1 -19z m-841 -19 c6 -5 14 -6 18 -2 4 4 4 0 1 -9 -6 -14 -11
-15 -30 -6 -28 13 -43 40 -17 31 9 -3 22 -10 28 -14z m487 -20 c5 -19 -24 -20
-31 -1 -2 6 -9 10 -15 8 -7 -1 -9 -1 -4 1 4 3 7 9 7 14 0 6 -5 7 -12 3 -6 -4
-8 -3 -5 4 9 14 55 -8 60 -29z m414 16 c0 -8 -7 -15 -15 -15 -12 0 -12 3 -2
15 7 8 13 15 15 15 1 0 2 -7 2 -15z m-389 -20 c-3 -3 -9 2 -12 12 -6 14 -5 15
5 6 7 -7 10 -15 7 -18z m-620 -14 c3 -8 -1 -12 -9 -9 -7 2 -15 10 -17 17 -3 8
1 12 9 9 7 -2 15 -10 17 -17z m186 4 c3 -8 1 -15 -4 -15 -6 0 -10 7 -10 15 0
8 2 15 4 15 2 0 6 -7 10 -15z m32 -22 c-10 -10 -19 5 -10 18 6 11 8 11 12 0 2
-7 1 -15 -2 -18z m484 7 c0 -5 -2 -10 -4 -10 -3 0 -8 5 -11 10 -3 6 -1 10 4
10 6 0 11 -4 11 -10z m-594 -35 c3 -20 3 -20 -12 -1 -10 15 -17 17 -25 9 -16
-16 -43 -5 -29 12 15 19 63 4 66 -20z m201 3 c-3 -8 -6 -5 -6 6 -1 11 2 17 5
13 3 -3 4 -12 1 -19z m20 -10 c-3 -7 -5 -2 -5 12 0 14 2 19 5 13 2 -7 2 -19 0
-25z m-180 0 c-3 -8 -6 -5 -6 6 -1 11 2 17 5 13 3 -3 4 -12 1 -19z m703 -2 c0
-23 -16 -27 -17 -5 -1 10 2 19 8 19 5 0 9 -6 9 -14z m-386 -37 c-9 -15 -23
-10 -34 11 -10 18 -9 19 14 8 14 -6 23 -15 20 -19z m-2307 -1 c-3 -8 -6 -5 -6
6 -1 11 2 17 5 13 3 -3 4 -12 1 -19z m38 3 c3 -5 2 -12 -3 -15 -5 -3 -9 1 -9
9 0 17 3 19 12 6z m1850 -1 c-3 -5 -1 -10 6 -10 7 0 10 -3 6 -6 -9 -9 -28 6
-22 17 4 5 8 9 11 9 3 0 2 -4 -1 -10z m940 -6 c23 -6 41 -31 30 -42 -3 -3 -5
0 -5 6 0 6 -6 9 -14 6 -8 -3 -17 0 -21 5 -3 6 -11 8 -17 5 -7 -5 -8 -2 -3 6 6
9 4 12 -7 8 -9 -4 -15 0 -15 8 0 9 6 13 15 9 7 -3 24 -8 37 -11z m-688 -16
c-3 -8 -6 -5 -6 6 -1 11 2 17 5 13 3 -3 4 -12 1 -19z m213 13 c0 -6 -4 -12 -8
-15 -5 -3 -9 1 -9 9 0 8 4 15 9 15 4 0 8 -4 8 -9z m63 -12 c4 -3 1 -12 -8 -19
-13 -11 -14 -10 -8 6 6 17 5 18 -11 5 -15 -12 -17 -12 -14 0 4 17 21 30 28 21
3 -4 9 -9 13 -13z m-1993 -9 c0 -5 -2 -10 -4 -10 -3 0 -8 5 -11 10 -3 6 -1 10
4 10 6 0 11 -4 11 -10z m70 -14 c0 -10 -30 0 -34 11 -4 11 -1 11 14 3 11 -6
20 -12 20 -14z m-420 4 c0 -5 -2 -10 -4 -10 -3 0 -8 5 -11 10 -3 6 -1 10 4 10
6 0 11 -4 11 -10z m2387 -22 c-3 -7 -5 -2 -5 12 0 14 2 19 5 13 2 -7 2 -19 0
-25z m447 17 c-4 -8 -11 -15 -16 -15 -6 0 -5 6 2 15 7 8 14 15 16 15 2 0 1 -7
-2 -15z m-2944 -5 c0 -5 -2 -10 -4 -10 -3 0 -8 5 -11 10 -3 6 -1 10 4 10 6 0
11 -4 11 -10z m578 -14 c-7 -7 -19 -11 -26 -8 -11 4 -11 6 0 13 7 5 19 9 26 9
10 0 10 -3 0 -14z m1809 -13 c2 -6 -3 -13 -12 -17 -9 -3 -13 -2 -10 4 4 6 -5
10 -20 10 -15 0 -24 4 -20 10 8 13 58 7 62 -7z m-1727 -16 c0 -8 -3 -8 -9 2
-6 9 -11 10 -15 2 -4 -6 -12 -11 -19 -11 -6 0 -2 6 8 14 21 15 35 12 35 -7z
m1507 1 c-3 -8 -6 -5 -6 6 -1 11 2 17 5 13 3 -3 4 -12 1 -19z m424 -1 c-10 -9
-11 -8 -5 6 3 10 9 15 12 12 3 -3 0 -11 -7 -18z m-767 -37 c-6 -5 -24 21 -24
34 0 6 6 1 14 -10 8 -10 12 -21 10 -24z m386 15 c0 -12 -19 -12 -23 0 -4 9 -1
12 9 8 7 -3 14 -7 14 -8z m170 -43 c0 -11 -3 -12 -13 -3 -8 6 -23 9 -36 6 -14
-2 -19 0 -15 7 5 7 2 9 -8 5 -10 -3 -18 1 -21 12 -4 17 -2 18 44 3 29 -9 49
-22 49 -30z m-470 12 c0 -8 -5 -12 -10 -9 -6 4 -8 11 -5 16 9 14 15 11 15 -7z
m697 -26 c-3 -8 -6 -5 -6 6 -1 11 2 17 5 13 3 -3 4 -12 1 -19z m60 -15 c-3
-10 -5 -4 -5 12 0 17 2 24 5 18 2 -7 2 -21 0 -30z m-2512 17 c-3 -5 -11 -10
-16 -10 -6 0 -7 5 -4 10 3 6 11 10 16 10 6 0 7 -4 4 -10z m45 -4 c0 -2 -7 -7
-16 -10 -8 -3 -12 -2 -9 4 6 10 25 14 25 6z m1891 -24 c-6 -2 -8 -8 -5 -14 4
-7 0 -7 -12 0 -11 5 -27 8 -36 7 -10 -2 -18 2 -18 9 0 22 10 24 47 13 19 -6
30 -13 24 -15z m664 -2 c3 -5 1 -10 -4 -10 -6 0 -11 5 -11 10 0 6 2 10 4 10 3
0 8 -4 11 -10z m-2799 -25 c1 -9 -4 -11 -14 -7 -10 4 -12 7 -4 10 7 2 9 9 5
15 -3 7 -2 8 2 4 5 -4 10 -14 11 -22z m354 -5 c-8 -5 -19 -10 -25 -10 -5 0 -3
5 5 10 8 5 20 10 25 10 6 0 3 -5 -5 -10z m1500 -21 c0 -5 -7 -9 -15 -9 -8 0
-15 7 -15 15 0 9 6 12 15 9 8 -4 15 -10 15 -15z m-1752 -20 c-3 -8 -7 -3 -11
10 -4 17 -3 21 5 13 5 -5 8 -16 6 -23z m2212 5 c0 -10 -8 -13 -26 -10 -31 6
-38 11 -30 24 8 14 56 2 56 -14z m-1865 6 c3 -5 1 -10 -4 -10 -6 0 -11 5 -11
10 0 6 2 10 4 10 3 0 8 -4 11 -10z m30 -9 c3 -5 2 -12 -3 -15 -5 -3 -9 1 -9 9
0 17 3 19 12 6z m1475 -12 c0 -4 7 -6 15 -3 8 4 15 2 15 -3 0 -5 -11 -10 -24
-11 -16 -1 -25 5 -29 17 -3 14 -1 18 9 14 8 -3 14 -9 14 -14z m-1930 -15 c0
-8 -5 -12 -10 -9 -6 4 -8 11 -5 16 9 14 15 11 15 -7z m196 -20 c1 -9 0 -13 -4
-10 -3 4 -7 14 -8 22 -1 9 0 13 4 10 3 -4 7 -14 8 -22z m338 0 c3 -7 -2 -10
-15 -7 -22 6 -26 20 -4 20 8 0 16 -6 19 -13z m1918 -3 c8 12 9 12 6 0 -7 -25
-28 -24 -27 1 1 19 2 20 6 4 4 -15 7 -16 15 -5z m-2367 -12 c11 -16 1 -19 -13
-3 -7 8 -8 14 -3 14 5 0 13 -5 16 -11z m1975 -5 c0 -8 -4 -12 -10 -9 -5 3 -10
10 -10 16 0 5 5 9 10 9 6 0 10 -7 10 -16z m49 -29 c0 -5 -4 -2 -10 8 -6 9 -14
15 -20 12 -10 -7 -13 8 -2 18 7 7 32 -22 32 -38z m362 22 c-10 -9 -11 -8 -5 6
3 10 9 15 12 12 3 -3 0 -11 -7 -18z m-2097 -23 c3 -8 2 -12 -4 -9 -6 3 -10 10
-10 16 0 14 7 11 14 -7z m1395 0 c4 3 13 1 21 -4 11 -7 12 -12 4 -20 -13 -13
-45 12 -43 33 0 8 2 8 6 -1 2 -6 8 -10 12 -8z m376 -3 c-3 -6 -11 -11 -16 -11
-5 0 -4 6 3 14 14 16 24 13 13 -3z m-2090 -5 c12 -12 12 -15 1 -19 -8 -3 -16
2 -19 14 -6 23 -1 24 18 5z m2558 -13 c-4 -11 -8 -12 -13 -3 -5 8 -13 9 -21 4
-12 -6 -12 -5 -1 8 16 20 43 13 35 -9z m-428 -3 c3 -6 -1 -7 -9 -4 -18 7 -21
14 -7 14 6 0 13 -4 16 -10z m-2075 -4 c0 -2 -7 -6 -15 -10 -8 -3 -15 -1 -15 4
0 6 7 10 15 10 8 0 15 -2 15 -4z m2535 -14 c-3 -3 -11 0 -18 7 -9 10 -8 11 6
5 10 -3 15 -9 12 -12z m-2515 -2 c-8 -5 -19 -10 -25 -10 -5 0 -3 5 5 10 8 5
20 10 25 10 6 0 3 -5 -5 -10z m150 0 c0 -5 -5 -10 -11 -10 -5 0 -7 5 -4 10 3
6 8 10 11 10 2 0 4 -4 4 -10z m1616 -28 c-10 -10 -29 15 -21 28 6 9 10 8 17
-4 6 -10 7 -20 4 -24z m358 30 c3 -5 -1 -9 -9 -9 -8 0 -12 4 -9 9 3 4 7 8 9 8
2 0 6 -4 9 -8z m28 -14 c-7 -7 -12 -8 -12 -2 0 14 12 26 19 19 2 -3 -1 -11 -7
-17z m35 0 c-3 -8 -6 -5 -6 6 -1 11 2 17 5 13 3 -3 4 -12 1 -19z m-2147 8 c0
-2 -7 -7 -16 -10 -8 -3 -12 -2 -9 4 6 10 25 14 25 6z m1780 -21 c19 -22 8 -25
-12 -3 -10 10 -14 18 -9 18 5 0 14 -7 21 -15z m-166 -16 c-7 -11 -34 -12 -34
-1 0 14 11 21 26 15 8 -3 11 -9 8 -14z m-1867 -11 c-3 -8 -6 -5 -6 6 -1 11 2
17 5 13 3 -3 4 -12 1 -19z m150 7 c0 -8 -4 -12 -9 -9 -5 3 -6 10 -3 15 9 13
12 11 12 -6z m-112 -5 c3 -5 -1 -10 -10 -10 -9 0 -13 5 -10 10 3 6 8 10 10 10
2 0 7 -4 10 -10z m1862 -12 c-3 -8 -6 -5 -6 6 -1 11 2 17 5 13 3 -3 4 -12 1
-19z m213 1 c0 -5 -7 -9 -15 -9 -15 0 -20 12 -9 23 8 8 24 -1 24 -14z m-179 2
c7 11 9 11 9 1 0 -7 5 -10 12 -6 6 4 8 3 5 -4 -9 -13 -40 -9 -43 7 -2 8 -1 8
3 0 4 -8 8 -7 14 2z m-1691 -28 c0 -19 -13 -9 -16 12 -1 8 2 13 7 9 5 -3 9
-12 9 -21z m355 5 c5 4 5 1 0 -7 -7 -12 -10 -11 -20 2 -7 9 -16 13 -20 9 -5
-4 -5 -1 0 7 7 12 10 11 20 -2 7 -9 16 -13 20 -9z m1593 -3 c-3 -3 -9 2 -12
12 -6 14 -5 15 5 6 7 -7 10 -15 7 -18z m-328 -22 c0 -14 -26 -18 -34 -4 -7 11
0 18 19 18 8 0 15 -6 15 -14z m167 -5 c-3 -8 -6 -5 -6 6 -1 11 2 17 5 13 3 -3
4 -12 1 -19z m223 -11 c0 -5 -4 -5 -10 -2 -5 3 -10 14 -10 23 0 15 2 15 10 2
5 -8 10 -19 10 -23z m403 14 c-4 -16 -8 -17 -29 -7 l-24 11 28 6 c15 4 28 7
29 8 0 0 -1 -7 -4 -18z m-731 -15 c7 4 8 2 4 -4 -6 -10 11 -17 36 -14 3 1 8
-5 11 -12 4 -10 -1 -12 -16 -8 -12 2 -27 9 -33 13 -6 5 -15 5 -19 1 -5 -4 -5
-2 -1 5 3 6 2 14 -4 18 -6 4 -7 12 -3 18 5 8 9 6 11 -6 2 -9 8 -14 14 -11z
m775 -1 c0 -7 -9 -13 -19 -12 -17 1 -24 17 -12 30 10 9 31 -3 31 -18z m-2182
6 c3 -5 2 -12 -3 -15 -5 -3 -9 1 -9 9 0 17 3 19 12 6z m1609 -6 c3 -8 1 -15
-4 -15 -6 0 -10 7 -10 15 0 8 2 15 4 15 2 0 6 -7 10 -15z m186 -6 c0 -6 -4 -7
-10 -4 -5 3 -10 11 -10 16 0 6 5 7 10 4 6 -3 10 -11 10 -16z m-1758 -3 c7 4 8
2 4 -5 -9 -13 -26 -5 -25 12 0 9 2 8 6 -1 2 -6 10 -9 15 -6z m-162 0 c0 -2 -7
-7 -16 -10 -8 -3 -12 -2 -9 4 6 10 25 14 25 6z m330 0 c0 -2 -7 -7 -16 -10 -8
-3 -12 -2 -9 4 6 10 25 14 25 6z m1440 -16 c0 -11 -2 -20 -4 -20 -2 0 -6 9 -9
20 -3 11 -1 20 4 20 5 0 9 -9 9 -20z m17 -2 c-3 -8 -6 -5 -6 6 -1 11 2 17 5
13 3 -3 4 -12 1 -19z m160 0 c-3 -8 -6 -5 -6 6 -1 11 2 17 5 13 3 -3 4 -12 1
-19z m443 -11 c0 -8 -3 -8 -11 0 -6 6 -19 9 -28 5 -14 -5 -14 -4 -2 11 10 13
17 15 27 6 8 -6 14 -16 14 -22z m-2802 -2 c-3 -3 -9 2 -12 12 -6 14 -5 15 5 6
7 -7 10 -15 7 -18z m937 15 c-3 -5 -11 -10 -16 -10 -6 0 -7 5 -4 10 3 6 11 10
16 10 6 0 7 -4 4 -10z m1122 -22 c-3 -8 -6 -5 -6 6 -1 11 2 17 5 13 3 -3 4
-12 1 -19z m-1907 2 c0 -5 -5 -10 -11 -10 -5 0 -7 5 -4 10 3 6 8 10 11 10 2 0
4 -4 4 -10z m54 -6 c3 -8 2 -12 -4 -9 -6 3 -10 10 -10 16 0 14 7 11 14 -7z
m266 6 c0 -5 -5 -10 -11 -10 -5 0 -7 5 -4 10 3 6 8 10 11 10 2 0 4 -4 4 -10z
m520 -6 c0 -8 -5 -12 -10 -9 -6 4 -8 11 -5 16 9 14 15 11 15 -7z m1867 -10
c-7 -7 -37 7 -37 17 0 6 9 5 21 -1 11 -7 19 -14 16 -16z m-622 6 c3 -5 2 -10
-4 -10 -5 0 -13 5 -16 10 -3 6 -2 10 4 10 5 0 13 -4 16 -10z m75 -19 c0 -16
-29 -7 -33 10 -4 16 -2 17 14 8 10 -5 19 -13 19 -18z m-1637 4 c-3 -9 -8 -14
-10 -11 -3 3 -2 9 2 15 9 16 15 13 8 -4z m1431 7 c3 -5 -1 -9 -9 -9 -8 0 -15
4 -15 9 0 4 4 8 9 8 6 0 12 -4 15 -8z m-1564 -6 c0 -3 -4 -8 -10 -11 -5 -3
-10 -1 -10 4 0 6 5 11 10 11 6 0 10 -2 10 -4z m1805 -7 c11 -17 -1 -21 -15 -4
-8 9 -8 15 -2 15 6 0 14 -5 17 -11z m-1766 -16 c0 -11 -3 -13 -6 -5 -2 6 -10
9 -15 6 -7 -4 -8 -2 -4 4 11 18 26 14 25 -5z m1568 -5 c-3 -8 -6 -5 -6 6 -1
11 2 17 5 13 3 -3 4 -12 1 -19z m246 7 c-3 -9 -8 -14 -10 -11 -3 3 -2 9 2 15
9 16 15 13 8 -4z m147 -5 c0 -5 -7 -7 -15 -4 -8 4 -15 8 -15 10 0 2 7 4 15 4
8 0 15 -4 15 -10z m477 -22 c-3 -7 -5 -2 -5 12 0 14 2 19 5 13 2 -7 2 -19 0
-25z m-3007 12 c0 -5 -5 -10 -11 -10 -5 0 -7 5 -4 10 3 6 8 10 11 10 2 0 4 -4
4 -10z m135 0 c-3 -5 -12 -10 -18 -10 -7 0 -6 4 3 10 19 12 23 12 15 0z m975
6 c0 -3 -4 -8 -10 -11 -5 -3 -10 -1 -10 4 0 6 5 11 10 11 6 0 10 -2 10 -4z
m743 -27 c-6 -6 -19 -6 -34 0 -18 7 -20 10 -6 10 11 1 15 6 11 12 -4 7 1 7 16
-1 14 -7 19 -15 13 -21z m717 21 c0 -5 -5 -10 -11 -10 -5 0 -7 5 -4 10 3 6 8
10 11 10 2 0 4 -4 4 -10z m-2390 -4 c0 -2 -7 -9 -15 -16 -13 -11 -14 -10 -9 4
5 14 24 23 24 12z m2847 -18 c-3 -8 -6 -5 -6 6 -1 11 2 17 5 13 3 -3 4 -12 1
-19z m57 16 c9 -3 16 -12 16 -19 0 -25 -15 -24 -27 1 -12 26 -12 27 11 18z
m-2891 -19 c-3 -9 -8 -14 -10 -11 -3 3 -2 9 2 15 9 16 15 13 8 -4z m1684 -17
c-3 -7 -5 -2 -5 12 0 14 2 19 5 13 2 -7 2 -19 0 -25z m377 17 c-4 -8 -11 -12
-16 -9 -6 4 -5 10 3 15 19 12 19 11 13 -6z m216 0 c0 6 5 2 11 -8 7 -13 14
-15 23 -8 8 7 12 5 13 -9 2 -17 -1 -18 -25 -7 -34 15 -53 33 -45 41 4 3 10 1
15 -6 4 -7 8 -8 8 -3z m197 -7 c2 -21 1 -22 -9 -4 -8 15 -12 16 -19 5 -7 -11
-9 -10 -9 4 0 26 35 22 37 -5z m-2617 2 c0 -5 -5 -10 -11 -10 -5 0 -7 5 -4 10
3 6 8 10 11 10 2 0 4 -4 4 -10z m653 -9 c3 -13 1 -18 -9 -14 -7 2 -10 11 -7
19 7 19 10 18 16 -5z m-463 5 c0 -2 -7 -6 -15 -10 -8 -3 -15 -1 -15 4 0 6 7
10 15 10 8 0 15 -2 15 -4z m2469 -25 c-15 -5 -22 6 -14 19 6 9 10 9 16 -1 5
-8 4 -15 -2 -18z m-2602 4 c0 -8 -4 -12 -9 -9 -5 3 -6 10 -3 15 9 13 12 11 12
-6z m813 11 c0 -2 -8 -10 -17 -17 -16 -13 -17 -12 -4 4 13 16 21 21 21 13z
m1036 -10 c13 3 24 2 24 -3 0 -15 -53 -10 -56 5 -1 7 0 8 3 2 2 -5 16 -7 29
-4z m786 -8 c-7 -7 -12 -8 -12 -2 0 14 12 26 19 19 2 -3 -1 -11 -7 -17z
m-2442 8 c0 -3 -4 -8 -10 -11 -5 -3 -10 -1 -10 4 0 6 5 11 10 11 6 0 10 -2 10
-4z m2268 -14 c2 -7 -3 -12 -12 -12 -9 0 -16 7 -16 16 0 17 22 14 28 -4z
m-725 -16 c3 -8 -3 -12 -18 -12 -28 2 -47 16 -21 16 9 0 14 4 11 10 -3 5 0 7
9 4 8 -3 17 -11 19 -18z m787 -11 c0 -12 -5 -12 -25 -3 -25 11 -30 19 -19 31
10 10 44 -12 44 -28z m211 11 c5 3 9 1 9 -5 0 -5 -4 -13 -10 -16 -5 -3 -10 -1
-10 5 0 6 -4 8 -10 5 -11 -7 -14 8 -3 19 4 4 9 2 11 -3 2 -6 8 -9 13 -5z
m-2304 -18 c-3 -8 -6 -5 -6 6 -1 11 2 17 5 13 3 -3 4 -12 1 -19z m463 12 c-19
-13 -30 -13 -30 0 0 6 10 10 23 10 18 0 19 -2 7 -10z m867 -12 c-3 -8 -6 -5
-6 6 -1 11 2 17 5 13 3 -3 4 -12 1 -19z m183 1 c0 -5 -4 -9 -10 -9 -5 0 -10 7
-10 16 0 8 5 12 10 9 6 -3 10 -10 10 -16z m-1823 -11 c-3 -8 -6 -5 -6 6 -1 11
2 17 5 13 3 -3 4 -12 1 -19z m1873 12 c0 -5 -2 -10 -4 -10 -3 0 -8 5 -11 10
-3 6 -1 10 4 10 6 0 11 -4 11 -10z m325 0 c3 -6 -1 -7 -9 -4 -18 7 -21 14 -7
14 6 0 13 -4 16 -10z m239 -4 c-21 -15 -30 -14 -19 3 3 6 14 11 23 11 13 0 13
-2 -4 -14z m-1604 -13 c0 -14 -2 -15 -9 -4 -5 8 -14 10 -21 6 -9 -5 -11 -4 -6
3 11 18 36 14 36 -5z m867 2 c0 -16 -22 -21 -32 -6 -3 5 3 12 12 14 10 3 18 5
19 6 0 0 1 -6 1 -14z m977 0 c-7 -16 -24 -21 -24 -6 0 8 7 13 27 20 1 1 0 -6
-3 -14z m-2919 -5 c3 -5 1 -10 -4 -10 -6 0 -11 5 -11 10 0 6 2 10 4 10 3 0 8
-4 11 -10z m295 0 c0 -5 -5 -10 -11 -10 -5 0 -7 5 -4 10 3 6 8 10 11 10 2 0 4
-4 4 -10z m637 -12 c-3 -8 -6 -5 -6 6 -1 11 2 17 5 13 3 -3 4 -12 1 -19z
m1649 1 c16 -7 32 -12 36 -11 4 1 5 -5 1 -14 -4 -11 -8 -12 -13 -4 -4 6 -13
11 -21 10 -28 -4 -39 0 -39 18 0 14 -2 15 -10 2 -5 -8 -10 -10 -10 -4 0 14 11
25 20 19 4 -2 20 -10 36 -16z m192 6 c3 -3 0 -11 -6 -17 -9 -9 -12 -8 -13 8 0
10 -3 13 -6 7 -2 -7 -11 -13 -19 -13 -14 0 -19 12 -8 23 6 6 44 1 52 -8z
m-2449 -16 c-16 -10 -23 -4 -14 10 3 6 11 8 17 5 6 -4 5 -9 -3 -15z m801 17
c0 -2 -7 -6 -15 -10 -8 -3 -15 -1 -15 4 0 6 7 10 15 10 8 0 15 -2 15 -4z m860
-5 c0 -6 -4 -12 -8 -15 -5 -3 -9 1 -9 9 0 8 4 15 9 15 4 0 8 -4 8 -9z m27 -23
c-3 -7 -5 -2 -5 12 0 14 2 19 5 13 2 -7 2 -19 0 -25z m-1517 12 c0 -5 -10 -10
-22 -10 -19 0 -20 2 -8 10 19 13 30 13 30 0z m2487 -12 c-3 -8 -6 -5 -6 6 -1
11 2 17 5 13 3 -3 4 -12 1 -19z m-5602 0 c14 -6 25 -14 25 -17 0 -3 16 -23 35
-45 23 -26 36 -53 41 -82 3 -24 11 -44 17 -44 7 0 7 -4 -1 -12 -7 -7 -12 -27
-12 -44 0 -18 -4 -35 -9 -38 -5 -3 -7 -14 -4 -24 2 -10 -3 -24 -11 -31 -9 -8
-16 -25 -16 -39 l0 -25 -25 23 c-14 13 -31 42 -37 64 -6 23 -17 48 -25 57 -7
9 -10 19 -6 24 5 4 3 5 -3 2 -7 -4 -14 -1 -17 7 -4 9 -14 12 -26 9 -14 -3 -21
-1 -21 8 0 8 -7 1 -15 -15 -17 -32 -20 -49 -5 -26 8 12 10 12 10 -5 0 -15 2
-17 9 -6 9 15 12 10 25 -52 4 -17 11 -25 18 -21 7 4 8 3 4 -5 -4 -6 -2 -26 5
-45 10 -29 10 -39 -4 -68 -12 -24 -17 -28 -17 -13 0 11 -5 27 -10 35 -7 11 -8
6 -5 -17 2 -18 -1 -33 -6 -33 -17 0 -46 34 -53 63 -5 21 -12 27 -32 27 -18 0
-40 15 -73 50 -32 33 -56 50 -72 50 -19 0 -21 -2 -9 -10 13 -8 12 -10 -2 -10
-10 0 -18 -3 -18 -7 0 -14 17 -35 26 -33 5 0 10 -9 12 -20 2 -13 17 -27 37
-36 24 -10 41 -27 57 -61 37 -77 42 -84 56 -78 8 3 15 -7 19 -25 3 -17 10 -33
16 -37 6 -4 7 -1 2 7 -5 7 3 5 18 -6 24 -18 57 -83 57 -114 0 -13 2 -13 10 0
7 12 10 8 11 -15 0 -25 2 -27 8 -10 6 15 9 11 14 -23 4 -23 11 -42 17 -42 5 0
12 -17 15 -37 10 -57 25 -83 51 -83 19 0 24 -7 30 -45 3 -25 10 -45 14 -45 4
0 15 -17 26 -37 10 -21 21 -40 24 -43 13 -13 30 -52 30 -69 0 -10 7 -21 15
-25 8 -3 15 -12 15 -21 0 -8 5 -15 10 -15 6 0 10 -21 10 -47 0 -27 7 -61 15
-77 8 -15 15 -39 15 -53 0 -13 4 -21 10 -18 6 3 10 -2 10 -12 0 -15 2 -16 11
-3 7 11 8 -2 5 -45 -4 -41 -3 -52 3 -35 7 20 9 21 10 6 1 -11 -4 -35 -11 -53
-9 -25 -9 -36 -1 -41 8 -5 8 -14 -2 -32 l-14 -25 -1 33 c0 32 -2 38 -34 99 -9
17 -16 38 -16 47 0 9 -9 20 -19 24 -11 4 -19 9 -19 12 1 3 -13 34 -31 70 -18
36 -31 65 -30 65 5 0 -14 50 -21 55 -5 3 -10 14 -12 25 -1 11 -9 25 -17 31
-10 8 -15 30 -14 65 0 49 -1 51 -9 22 -11 -40 -28 -43 -28 -5 0 15 -7 35 -15
46 -10 13 -11 24 -5 36 7 13 4 25 -9 41 -9 13 -21 33 -25 44 -6 16 -9 17 -16
5 -7 -11 -10 -7 -10 15 0 23 -3 27 -10 15 -7 -11 -10 -7 -10 18 0 19 -6 35
-15 38 -8 3 -25 28 -38 54 -14 27 -27 46 -31 43 -3 -4 -7 -1 -7 5 -4 36 -20
73 -29 67 -10 -6 -21 20 -16 38 13 39 15 67 6 67 -5 0 -38 29 -74 65 -35 36
-69 65 -74 65 -6 0 -22 14 -36 30 -14 17 -28 30 -31 30 -3 0 -14 8 -25 18 -11
9 -29 24 -39 34 -12 10 -18 27 -17 46 1 17 -1 29 -4 27 -4 -2 -7 2 -7 10 0 20
13 19 29 -2 16 -22 55 -53 45 -36 -5 7 0 25 10 40 14 22 15 26 2 16 -9 -7 -19
-10 -22 -6 -9 9 -9 23 1 22 20 -3 25 2 12 12 -11 8 -12 12 -2 16 6 2 9 9 6 15
-4 6 -12 1 -20 -13 -11 -22 -13 -22 -20 -6 -4 12 0 23 12 32 14 10 15 14 5 15
-8 0 -11 3 -8 7 4 3 16 -2 26 -11 12 -11 27 -15 39 -11 14 4 25 -1 35 -15 9
-14 17 -17 22 -11 7 12 -4 56 -12 47 -7 -7 -32 17 -27 26 3 4 -6 5 -18 3 -30
-6 -58 3 -58 19 0 6 15 13 33 14 43 3 74 9 88 17 12 8 49 -22 49 -40 0 -7 7
-18 16 -26 14 -11 15 -8 10 32 l-6 44 18 -34 c11 -19 22 -29 26 -23 7 11 43 5
64 -11 9 -7 12 -3 12 17 0 14 -4 26 -9 26 -12 0 26 72 46 88 21 15 45 15 78 0z
m2685 -4 c0 -8 -5 -12 -10 -9 -6 4 -8 11 -5 16 9 14 15 11 15 -7z m295 6 c-3
-5 -14 -10 -23 -10 -15 0 -15 2 -2 10 20 13 33 13 25 0z m812 -12 c-3 -8 -6
-5 -6 6 -1 11 2 17 5 13 3 -3 4 -12 1 -19z m883 -12 c0 -3 -7 -3 -15 0 -8 4
-15 13 -15 21 0 12 2 12 15 -1 8 -8 15 -17 15 -20z m150 24 c0 -5 -4 -10 -10
-10 -5 0 -10 5 -10 10 0 6 5 10 10 10 6 0 10 -4 10 -10z m49 -17 c11 -21 10
-22 -11 -14 -12 4 -23 13 -24 20 -1 6 0 7 3 1 8 -17 23 -11 16 8 -8 22 1 14
16 -15z m578 12 c-6 -17 -37 -18 -37 -1 0 9 8 14 20 13 11 -1 19 -6 17 -12z
m-2282 -5 c3 -5 1 -10 -4 -10 -6 0 -11 5 -11 10 0 6 2 10 4 10 3 0 8 -4 11
-10z m1733 -15 c-3 -3 -9 2 -12 12 -6 14 -5 15 5 6 7 -7 10 -15 7 -18z m402
-5 c12 -23 12 -24 -4 -11 -15 13 -19 13 -27 0 -8 -11 -9 -10 -7 6 3 17 19 39
24 32 1 -1 7 -13 14 -27z m183 4 c-6 -16 -16 -11 -19 11 -1 8 4 11 11 8 8 -2
11 -11 8 -19z m-1821 -6 c-7 -7 -12 -8 -12 -2 0 14 12 26 19 19 2 -3 -1 -11
-7 -17z m178 14 c0 -4 -9 -8 -19 -8 -11 0 -17 4 -15 8 3 4 12 8 20 8 8 0 14
-4 14 -8z m-1088 -24 c-7 -7 -12 -8 -12 -2 0 14 12 26 19 19 2 -3 -1 -11 -7
-17z m2191 2 c-3 -12 -8 -19 -11 -16 -5 6 5 36 12 36 2 0 2 -9 -1 -20z m601
-5 c-4 -8 -11 -15 -16 -15 -6 0 -5 6 2 15 7 8 14 15 16 15 2 0 1 -7 -2 -15z
m-5272 -16 c33 -11 65 -18 73 -15 8 3 17 1 20 -4 7 -11 -75 -101 -87 -94 -4 3
-11 -8 -14 -25 -9 -42 -21 -39 -35 9 -15 48 -37 54 -30 8 0 -5 -5 -8 -13 -8
-8 0 -16 -6 -19 -12 -2 -7 -2 -3 -1 9 2 12 -2 28 -10 35 -8 9 -12 31 -11 57 4
67 30 75 127 40z m2368 6 c0 -8 -4 -15 -10 -15 -5 0 -7 7 -4 15 4 8 8 15 10
15 2 0 4 -7 4 -15z m1084 7 c3 -5 -1 -9 -9 -9 -8 0 -15 4 -15 9 0 4 4 8 9 8 6
0 12 -4 15 -8z m-917 -24 c-3 -8 -6 -5 -6 6 -1 11 2 17 5 13 3 -3 4 -12 1 -19z
m956 7 c-3 -9 -8 -14 -10 -11 -3 3 -2 9 2 15 9 16 15 13 8 -4z m1818 -2 c13
-17 13 -17 -6 -3 -11 8 -22 16 -24 17 -2 2 0 3 6 3 6 0 17 -8 24 -17z m46 -5
c-3 -8 -6 -5 -6 6 -1 11 2 17 5 13 3 -3 4 -12 1 -19z m-2928 -33 c0 -5 -4 -3
-9 5 -5 8 -9 22 -9 30 0 16 17 -16 18 -35z m425 29 c3 -8 2 -12 -4 -9 -6 3
-10 10 -10 16 0 14 7 11 14 -7z m180 0 c3 -8 2 -12 -4 -9 -6 3 -10 10 -10 16
0 14 7 11 14 -7z m-439 -3 c3 -5 2 -12 -3 -15 -5 -3 -9 1 -9 9 0 17 3 19 12 6z
m2208 -4 c-4 -6 1 -8 11 -4 14 6 17 3 12 -9 -6 -14 -4 -15 10 -4 13 12 17 11
25 -1 5 -8 8 -21 8 -29 0 -10 -3 -8 -9 5 -5 11 -9 15 -9 9 -1 -13 -79 10 -96
28 -7 8 -5 9 8 5 9 -4 17 -3 17 2 0 4 7 8 15 8 8 0 11 -5 8 -10z m614 -29 c-3
-7 -5 -2 -5 12 0 14 2 19 5 13 2 -7 2 -19 0 -25z m-2927 14 c0 -5 -7 -9 -15
-9 -8 0 -12 4 -9 9 3 4 9 8 15 8 5 0 9 -4 9 -8z m-120 -22 c-8 -5 -17 -7 -19
-4 -3 3 1 9 9 14 8 5 17 7 19 4 3 -3 -1 -9 -9 -14z m2530 5 c7 -9 8 -15 2 -15
-5 0 -12 7 -16 15 -3 8 -4 15 -2 15 2 0 9 -7 16 -15z m-5617 -25 c-3 -12 -8
-19 -11 -16 -5 6 5 36 12 36 2 0 2 -9 -1 -20z m3134 -13 c2 -17 1 -19 -7 -7
-11 17 -14 47 -3 36 4 -3 8 -17 10 -29z m131 12 c3 -12 2 -12 -6 0 -6 8 -15
10 -22 6 -9 -5 -11 -4 -6 4 10 15 28 10 34 -10z m170 -10 c-3 -8 -7 -3 -11 10
-4 17 -3 21 5 13 5 -5 8 -16 6 -23z m-3513 -14 c-4 -11 -7 -25 -7 -32 -1 -6
-7 -9 -15 -6 -7 3 -11 8 -9 12 3 4 1 13 -5 21 -5 8 -9 11 -9 5 0 -5 -13 -9
-30 -9 -48 2 -52 3 -45 15 4 6 13 8 19 6 7 -3 19 -1 27 4 8 5 29 8 47 7 29 -2
32 -5 27 -23z m5774 11 c8 -10 9 -16 1 -21 -6 -4 -10 -3 -9 2 3 20 -2 27 -11
13 -8 -13 -10 -12 -10 3 0 21 13 22 29 3z m-2504 -6 c3 -5 1 -10 -4 -10 -6 0
-11 5 -11 10 0 6 2 10 4 10 3 0 8 -4 11 -10z m2542 -22 c-3 -8 -6 -5 -6 6 -1
11 2 17 5 13 3 -3 4 -12 1 -19z m53 -15 c0 -1 -5 -5 -12 -9 -6 -4 -8 -3 -5 3
4 6 0 13 -8 17 -8 3 -15 10 -15 16 0 5 9 2 20 -7 11 -10 20 -18 20 -20z
m-2695 16 c11 -17 -1 -21 -15 -4 -8 9 -8 15 -2 15 6 0 14 -5 17 -11z m445 5
c0 -8 -19 -13 -24 -6 -3 5 1 9 9 9 8 0 15 -2 15 -3z m-280 -14 c0 -5 -5 -10
-11 -10 -5 0 -7 5 -4 10 3 6 8 10 11 10 2 0 4 -4 4 -10z m142 -12 c-7 -7 -12
-8 -12 -2 0 14 12 26 19 19 2 -3 -1 -11 -7 -17z m473 12 c3 -5 -1 -10 -10 -10
-9 0 -13 5 -10 10 3 6 8 10 10 10 2 0 7 -4 10 -10z m1415 -25 c0 -19 -4 -35
-10 -35 -5 0 -10 16 -10 35 0 19 5 35 10 35 6 0 10 -16 10 -35z m-1710 10 c0
-9 -6 -12 -15 -9 -8 4 -12 10 -9 15 8 14 24 10 24 -6z m-400 -10 c7 -9 8 -15
2 -15 -5 0 -12 7 -16 15 -3 8 -4 15 -2 15 2 0 9 -7 16 -15z m750 5 c0 -5 -2
-10 -4 -10 -3 0 -8 5 -11 10 -3 6 -1 10 4 10 6 0 11 -4 11 -10z m1955 -10 c28
-10 44 -19 37 -20 -8 0 -10 -5 -6 -12 6 -9 3 -9 -9 0 -9 8 -21 11 -27 7 -6 -4
-10 -3 -9 2 3 20 -2 27 -11 13 -8 -13 -10 -12 -10 3 0 10 -4 16 -8 13 -4 -2
-14 -1 -22 5 -27 16 11 11 65 -11z m-6814 -4 c42 -13 83 -33 214 -104 66 -36
174 -65 161 -43 -3 4 6 6 21 3 14 -3 23 -1 20 4 -3 6 21 7 59 4 56 -5 64 -3
64 12 0 20 16 32 25 18 3 -5 13 -10 21 -10 9 0 12 5 8 11 -4 8 0 8 15 0 16 -9
21 -9 21 1 0 9 3 9 10 -2 5 -8 10 -11 10 -5 0 5 5 4 12 -3 18 -18 28 -15 21 6
-8 21 -43 51 -60 52 -7 0 -10 -6 -7 -14 4 -11 -5 -13 -40 -11 -25 1 -46 -2
-46 -7 0 -5 -5 -6 -11 -2 -8 4 -1 16 19 33 40 35 69 55 73 51 2 -2 14 2 27 9
20 11 27 10 43 -5 10 -9 19 -13 19 -8 0 5 4 5 8 -1 4 -5 22 -23 41 -40 28 -25
32 -26 22 -8 -6 12 -11 32 -11 45 l0 22 16 -22 c8 -12 21 -22 27 -22 7 0 18
-9 25 -20 14 -23 34 -27 26 -5 -5 11 -2 13 10 9 9 -3 16 -10 16 -14 0 -5 3
-17 6 -27 4 -14 4 -15 -4 -4 -5 7 -15 12 -21 10 -7 -3 -2 -17 14 -39 31 -42
31 -47 3 -46 -15 1 -22 -4 -20 -14 1 -10 -3 -9 -14 5 -8 11 -20 19 -25 18 -5
-2 -9 1 -9 5 0 4 -9 8 -20 9 -18 2 -18 0 -3 -32 13 -27 19 -32 30 -24 15 13
15 13 17 -21 1 -14 10 -42 20 -62 19 -39 27 -106 14 -114 -4 -3 -15 11 -25 30
-10 22 -23 35 -32 34 -11 -2 -15 4 -14 22 1 14 -1 19 -3 13 -9 -22 -43 4 -62
47 -17 41 -44 55 -37 20 2 -11 0 -22 -6 -25 -5 -4 -9 -11 -9 -16 0 -6 5 -7 10
-4 6 4 10 -6 10 -23 0 -16 7 -35 15 -42 8 -7 13 -16 10 -20 -3 -5 -1 -11 4
-14 5 -4 8 -20 6 -36 -2 -16 0 -32 6 -35 5 -4 9 -14 9 -23 0 -19 49 -68 133
-131 31 -24 57 -50 57 -58 0 -9 6 -13 15 -9 8 3 15 0 16 -7 1 -7 5 -1 9 13 8
24 8 24 9 -7 1 -32 -19 -58 -27 -34 -3 9 -7 9 -18 0 -8 -6 -11 -15 -8 -20 3
-5 0 -9 -5 -9 -6 0 -11 5 -11 10 0 6 -7 10 -15 10 -8 0 -15 5 -15 10 0 6 -6
10 -13 10 -8 0 -19 11 -25 25 -6 14 -19 25 -28 25 -9 0 -24 10 -35 23 -18 21
-18 21 -19 2 0 -18 -2 -17 -15 5 -8 14 -18 33 -21 43 -3 9 -10 17 -15 17 -5 0
-9 -8 -9 -17 0 -15 -2 -16 -10 -3 -8 12 -10 11 -10 -7 0 -13 6 -23 14 -23 22
0 29 -31 10 -45 -14 -9 -14 -14 -4 -20 9 -5 11 -4 6 3 -4 7 -2 12 3 12 20 0
11 -28 -15 -49 -18 -14 -24 -26 -20 -38 4 -10 4 -14 0 -10 -4 4 -12 -3 -18
-15 -6 -11 -22 -25 -35 -30 l-25 -9 20 22 19 22 -25 -13 c-14 -7 -40 -26 -57
-43 -37 -35 -42 -24 -13 30 22 41 19 54 -7 31 -24 -20 -53 -30 -53 -18 0 5 17
18 38 29 20 11 30 21 22 21 -8 1 -35 4 -60 6 -25 2 -49 4 -55 5 -5 0 -21 -2
-35 -5 -21 -4 -23 -3 -9 7 11 8 14 19 9 32 -4 11 -2 24 4 28 7 6 6 7 -4 4 -8
-2 -14 -10 -12 -16 1 -8 -2 -9 -10 -4 -7 4 -21 6 -30 5 -10 -2 -18 2 -18 7 0
6 -5 11 -11 11 -5 0 -7 -5 -3 -12 5 -7 3 -8 -5 -4 -7 5 -21 0 -33 -11 -13 -11
-18 -12 -13 -3 19 31 40 50 58 50 10 0 16 4 12 9 -3 5 -25 8 -50 5 -27 -2 -45
0 -45 6 0 5 5 10 11 10 5 0 7 5 4 10 -4 7 2 9 19 4 20 -5 35 1 60 20 19 14 43
26 53 27 11 0 13 3 5 6 -7 2 -33 -2 -57 -11 -25 -8 -43 -11 -40 -7 3 5 -3 12
-12 15 -9 4 -19 3 -22 -3 -3 -5 -22 -15 -41 -23 -20 -9 -43 -23 -53 -32 -9
-10 -17 -12 -17 -6 0 6 -5 8 -11 4 -7 -4 -10 -1 -7 7 3 8 13 16 24 18 10 2 24
11 31 20 14 18 17 45 5 37 -4 -2 -14 -1 -21 3 -8 6 1 14 30 25 41 17 42 17 20
32 -16 12 -36 14 -84 9 -34 -3 -68 -7 -74 -7 -7 -1 -13 -6 -13 -12 0 -5 -7 -1
-16 10 -8 10 -12 12 -8 4 5 -11 4 -12 -4 -5 -14 12 -4 57 10 49 6 -4 14 0 19
7 13 21 11 29 -8 29 -15 0 -16 -2 -3 -10 13 -8 12 -10 -2 -10 -10 0 -18 4 -18
10 0 5 8 14 18 19 15 9 15 10 -5 11 -25 0 -29 10 -12 27 7 7 7 13 0 17 -5 4
-8 13 -5 21 4 8 10 12 15 9 5 -3 9 0 9 6 0 6 -7 13 -15 15 -8 3 -22 7 -31 10
-12 4 -14 9 -5 18 8 10 5 21 -12 44 -21 29 -27 33 -45 33 -5 0 -17 18 -28 39
-10 22 -23 37 -28 34 -5 -4 -6 -1 -2 5 4 6 13 9 21 5 19 -7 19 2 0 21 -12 12
-22 13 -42 5 -30 -11 -36 -8 -27 15 14 36 95 46 175 22z m3949 4 c0 -5 -5 -10
-11 -10 -5 0 -7 5 -4 10 3 6 8 10 11 10 2 0 4 -4 4 -10z m605 -18 c-3 -3 -11
0 -18 7 -9 10 -8 11 6 5 10 -3 15 -9 12 -12z m-378 -24 c-3 -8 -6 -5 -6 6 -1
11 2 17 5 13 3 -3 4 -12 1 -19z m2737 -4 c20 -20 20 -23 -1 -19 -10 2 -21 4
-25 4 -11 1 -10 31 1 31 5 0 17 -7 25 -16z m-1924 -4 c0 -5 -7 -10 -15 -10 -8
0 -15 5 -15 10 0 6 7 10 15 10 8 0 15 -4 15 -10z m1970 -5 c0 -12 -19 -12 -23
0 -4 9 -1 12 9 8 7 -3 14 -7 14 -8z m-3000 1 c0 -2 -7 -7 -16 -10 -8 -3 -12
-2 -9 4 6 10 25 14 25 6z m280 -11 c0 -9 -6 -12 -15 -9 -8 4 -12 10 -9 15 8
14 24 10 24 -6z m490 -1 c0 -2 -9 -4 -20 -4 -11 0 -20 4 -20 9 0 5 9 7 20 4
11 -3 20 -7 20 -9z m272 -16 c-8 -8 -9 -4 -5 13 4 13 8 18 11 10 2 -7 -1 -18
-6 -23z m-249 -8 c3 -11 1 -18 -4 -14 -5 3 -9 12 -9 20 0 20 7 17 13 -6z
m-426 -22 c-3 -8 -6 -5 -6 6 -1 11 2 17 5 13 3 -3 4 -12 1 -19z m463 2 c0 -5
-5 -10 -11 -10 -5 0 -7 5 -4 10 3 6 8 10 11 10 2 0 4 -4 4 -10z m2245 0 c3 -6
-1 -7 -9 -4 -18 7 -21 14 -7 14 6 0 13 -4 16 -10z m-2945 -8 c0 -5 -7 -9 -15
-9 -8 0 -15 4 -15 9 0 4 7 8 15 8 8 0 15 -4 15 -8z m295 -2 c3 -5 1 -10 -4
-10 -6 0 -11 5 -11 10 0 6 2 10 4 10 3 0 8 -4 11 -10z m752 -12 c-3 -8 -6 -5
-6 6 -1 11 2 17 5 13 3 -3 4 -12 1 -19z m49 -16 c1 -7 0 -8 -3 -2 -2 5 -9 8
-14 4 -5 -3 -9 0 -9 6 0 15 23 7 26 -8z m-1036 4 c0 -2 -7 -7 -16 -10 -8 -3
-12 -2 -9 4 6 10 25 14 25 6z m34 -12 c3 -8 2 -12 -4 -9 -6 3 -10 10 -10 16 0
14 7 11 14 -7z m233 -6 c-3 -8 -6 -5 -6 6 -1 11 2 17 5 13 3 -3 4 -12 1 -19z
m-509 -23 c-3 -3 -9 2 -12 12 -6 14 -5 15 5 6 7 -7 10 -15 7 -18z m602 -6 c0
-5 -4 -9 -8 -9 -5 0 -9 7 -9 15 0 8 4 12 9 9 4 -3 8 -9 8 -15z m30 -14 c-7 -9
-15 -13 -19 -10 -3 3 1 10 9 15 21 14 24 12 10 -5z m-540 -5 c0 -5 -10 -10
-22 -9 -22 0 -22 1 -3 9 11 5 21 9 23 9 1 1 2 -3 2 -9z m338 -41 c-3 -8 -7 -3
-11 10 -4 17 -3 21 5 13 5 -5 8 -16 6 -23z m314 -11 c-7 -7 -12 -8 -12 -2 0
14 12 26 19 19 2 -3 -1 -11 -7 -17z m48 -8 c0 -5 -5 -10 -11 -10 -5 0 -7 5 -4
10 3 6 8 10 11 10 2 0 4 -4 4 -10z m-921 -23 c0 -9 -2 -8 -6 1 -2 6 -10 9 -15
6 -7 -4 -8 -2 -4 5 9 13 26 5 25 -12z m953 1 c-7 -7 -12 -8 -12 -2 0 14 12 26
19 19 2 -3 -1 -11 -7 -17z m-255 -20 c-3 -8 -6 -5 -6 6 -1 11 2 17 5 13 3 -3
4 -12 1 -19z m303 12 c0 -5 -5 -10 -11 -10 -5 0 -7 5 -4 10 3 6 8 10 11 10 2
0 4 -4 4 -10z m-3767 -42 c5 2 7 -4 4 -13 -4 -8 -1 -15 6 -15 8 0 9 -2 1 -8
-6 -4 -10 -15 -8 -26 2 -17 2 -17 -14 1 -27 31 -42 61 -42 85 l1 23 21 -25
c11 -14 25 -24 31 -22z m2935 17 c-3 -3 -9 2 -12 12 -6 14 -5 15 5 6 7 -7 10
-15 7 -18z m544 -7 c-8 -8 -9 -4 -5 13 4 13 8 18 11 10 2 -7 -1 -18 -6 -23z
m328 10 c0 -6 -6 -5 -15 2 -8 7 -15 14 -15 16 0 2 7 1 15 -2 8 -4 15 -11 15
-16z m-570 -21 c0 -4 -6 -2 -14 5 -8 7 -12 17 -9 22 5 8 23 -12 23 -27z
m-2678 -20 c38 -36 46 -49 50 -91 3 -27 16 -61 28 -79 17 -22 23 -42 21 -77
-1 -40 3 -49 26 -66 39 -28 61 -35 67 -21 2 7 5 -6 7 -28 1 -29 3 -33 6 -15 6
30 23 51 23 28 0 -9 5 -18 10 -20 6 -2 11 -34 11 -76 0 -40 4 -70 8 -67 5 2
11 -13 15 -34 3 -21 13 -41 21 -45 8 -3 15 -9 14 -13 -3 -14 13 -73 20 -73 3
0 7 -19 9 -41 3 -47 26 -109 40 -109 5 0 13 -24 16 -54 4 -30 14 -60 22 -67
22 -18 17 -39 -8 -35 -14 2 -25 12 -28 27 -3 13 -17 29 -30 36 -14 7 -19 13
-12 13 7 0 -7 28 -32 64 -26 35 -46 74 -46 88 0 14 -16 41 -40 66 -48 50 -80
118 -86 187 -8 82 -12 92 -54 135 -39 41 -40 41 -40 16 0 -14 5 -26 10 -26 6
0 10 -16 10 -35 0 -22 6 -38 15 -41 9 -4 15 -19 15 -38 l-1 -31 -24 28 -25 28
0 -25 c0 -13 7 -32 16 -40 8 -9 14 -28 12 -43 -3 -24 -6 -20 -21 26 -10 30
-17 70 -16 90 3 40 -5 71 -29 118 -18 36 -11 53 13 33 9 -7 18 -11 20 -8 10 9
-19 113 -35 126 -8 8 -10 11 -3 8 7 -4 9 1 6 15 -4 15 -8 17 -14 8 -4 -7 -10
7 -14 37 -4 27 -16 66 -26 86 -22 44 -25 78 -6 78 8 0 34 -19 59 -43z m180
-26 c5 -16 5 -28 -2 -35 -7 -7 -10 -2 -10 17 0 15 -5 27 -11 27 -5 0 -7 5 -4
10 3 6 2 10 -3 10 -6 0 -13 8 -16 17 -6 14 -3 14 15 -3 12 -10 25 -30 31 -43z
m-1826 12 c-10 -11 -19 -7 -22 10 -2 15 0 16 12 6 8 -6 12 -14 10 -16z m1244
7 c0 -11 -2 -20 -4 -20 -2 0 -6 9 -9 20 -3 11 -1 20 4 20 5 0 9 -9 9 -20z
m3170 0 c0 -5 -2 -10 -4 -10 -3 0 -8 5 -11 10 -3 6 -1 10 4 10 6 0 11 -4 11
-10z m-3575 -10 c-3 -5 -3 -10 2 -10 4 0 8 -11 8 -24 0 -22 -23 -27 -26 -5 -1
5 -2 15 -3 22 -1 6 3 15 9 19 14 11 17 10 10 -2z m3882 -3 c0 -8 -6 -14 -14
-14 -9 0 -10 4 -2 14 6 7 12 13 14 13 1 0 2 -6 2 -13z m313 9 c0 -9 -30 -14
-35 -6 -4 6 3 10 14 10 12 0 21 -2 21 -4z m-4950 -16 c0 -5 -5 -10 -11 -10 -5
0 -7 5 -4 10 3 6 8 10 11 10 2 0 4 -4 4 -10z m1872 -48 l-6 -27 -6 25 c-8 30
-1 58 10 40 4 -6 5 -23 2 -38z m2228 38 c0 -5 -5 -10 -11 -10 -5 0 -7 5 -4 10
3 6 8 10 11 10 2 0 4 -4 4 -10z m-4156 -49 c-2 -2 6 -12 18 -23 12 -10 18 -21
14 -25 -8 -8 -36 19 -40 38 -1 8 -8 25 -15 39 l-12 25 20 -25 c11 -14 18 -27
15 -29z m4763 34 c0 -8 -4 -12 -9 -9 -5 3 -6 10 -3 15 9 13 12 11 12 -6z
m-2857 -30 c0 -17 -7 -24 -27 -28 -33 -6 -30 -9 -38 28 -6 28 -5 29 8 12 15
-18 15 -18 22 2 8 26 35 16 35 -14z m3177 3 c-3 -8 -6 -5 -6 6 -1 11 2 17 5
13 3 -3 4 -12 1 -19z m-263 4 c3 -5 -1 -9 -9 -9 -8 0 -15 4 -15 9 0 4 4 8 9 8
6 0 12 -4 15 -8z m-268 -20 c1 -7 0 -8 -2 -3 -3 6 -12 7 -21 4 -11 -4 -14 -3
-9 6 9 14 29 10 32 -7z m-2589 -14 c-3 -8 -6 -5 -6 6 -1 11 2 17 5 13 3 -3 4
-12 1 -19z m2928 -6 c-3 -3 -12 -7 -21 -8 -11 -2 -12 1 -5 10 6 7 7 17 3 22
-4 4 1 2 11 -5 9 -8 15 -16 12 -19z m-4665 6 c0 -11 -12 -10 -30 2 -12 7 -10
9 8 7 12 0 22 -5 22 -9z m4407 -20 c-3 -8 -6 -5 -6 6 -1 11 2 17 5 13 3 -3 4
-12 1 -19z m-3707 -14 c0 -8 5 -12 10 -9 6 3 10 2 10 -3 0 -6 -6 -12 -13 -15
-15 -6 -41 29 -32 44 8 13 25 1 25 -17z m176 4 c8 -7 24 -22 34 -32 15 -15 20
-16 20 -5 0 8 12 -5 26 -28 24 -42 25 -43 7 -68 -10 -13 -20 -25 -23 -25 -3 0
-4 21 -2 48 2 46 2 46 -14 25 -15 -22 -42 -34 -30 -14 3 5 -1 12 -10 15 -11 4
-15 14 -12 30 4 17 1 23 -9 19 -9 -3 -13 3 -13 21 0 29 4 31 26 14z m98 -3 c3
-8 1 -15 -4 -15 -6 0 -10 7 -10 15 0 8 2 15 4 15 2 0 6 -7 10 -15z m3476 -6
c0 -5 -4 -9 -8 -9 -5 0 -9 7 -9 15 0 8 4 12 9 9 4 -3 8 -9 8 -15z m-3611 -32
c1 -5 -3 -5 -9 -2 -5 3 -10 16 -9 28 0 21 1 21 9 2 5 -11 9 -24 9 -28z m-30 6
c0 -25 -1 -25 -8 -8 -5 11 -7 23 -4 28 8 14 13 7 12 -20z m495 11 c9 -22 8
-24 -9 -18 -8 4 -15 12 -15 20 0 19 16 18 24 -2z m3493 9 c-4 -3 -2 -12 5 -20
8 -11 7 -12 -6 -7 -9 3 -16 9 -16 13 0 9 11 21 18 21 3 0 2 -3 -1 -7z m47 -44
c-3 -5 -10 -7 -15 -3 -5 3 -7 10 -3 15 3 5 10 7 15 3 5 -3 7 -10 3 -15z
m-3504 -19 c0 -10 6 -23 13 -27 7 -5 12 -28 12 -55 0 -25 -3 -44 -7 -41 -5 2
-8 -3 -8 -12 0 -9 5 -13 10 -10 6 4 10 -7 9 -27 0 -18 -3 -27 -6 -20 -2 6 -9
10 -14 6 -5 -3 -9 -2 -9 3 -5 78 -4 126 2 130 5 2 8 9 8 14 0 6 -4 7 -10 4 -5
-3 -10 3 -10 14 0 10 -3 27 -7 37 -4 12 -3 15 5 10 7 -4 12 -16 12 -26z m3233
9 c4 -16 3 -18 -9 -8 -7 6 -11 15 -8 20 8 13 11 11 17 -12z m-273 1 c0 -5 -5
-10 -11 -10 -5 0 -7 5 -4 10 3 6 8 10 11 10 2 0 4 -4 4 -10z m341 -24 c5 3 9
0 9 -6 0 -15 -23 -7 -26 8 -1 7 0 8 3 2 2 -5 9 -8 14 -4z m86 -48 c-3 -8 -6
-5 -6 6 -1 11 2 17 5 13 3 -3 4 -12 1 -19z m-3787 -80 c0 -26 -15 -22 -28 7
-18 39 -14 50 8 30 11 -10 20 -26 20 -37z m3585 42 c-3 -5 -11 -10 -16 -10 -6
0 -7 5 -4 10 3 6 11 10 16 10 6 0 7 -4 4 -10z m49 -8 c3 -5 -1 -9 -9 -9 -8 0
-12 4 -9 9 3 4 7 8 9 8 2 0 6 -4 9 -8z m-3573 -11 c10 16 12 -1 9 -58 -1 -18
3 -33 8 -33 5 0 9 -6 9 -14 0 -8 -3 -14 -6 -13 -11 4 -12 -12 -5 -63 4 -28 11
-50 16 -50 5 0 7 -4 4 -8 -3 -5 -2 -22 3 -38 7 -27 8 -25 15 23 l8 51 30 -10
c24 -9 29 -15 25 -35 -2 -13 0 -26 5 -29 5 -3 5 -11 -1 -18 -5 -6 -8 -21 -6
-31 2 -11 4 -27 4 -34 1 -12 4 -12 13 -3 17 17 26 15 53 -14 21 -23 26 -24 31
-10 10 25 22 19 30 -16 4 -18 9 -27 11 -20 9 24 23 12 24 -20 0 -25 2 -29 8
-14 6 17 9 15 21 -14 7 -18 13 -38 13 -46 0 -7 4 -11 9 -8 4 3 8 -4 8 -16 0
-12 5 -18 10 -15 6 3 10 -1 10 -9 0 -9 4 -16 10 -16 5 0 7 -13 3 -32 -4 -22
-3 -29 5 -24 11 7 16 -7 15 -41 0 -6 5 -9 13 -6 10 4 11 -2 4 -29 -6 -18 -10
-34 -10 -36 0 -2 -4 -1 -9 2 -5 4 -12 -8 -16 -25 -7 -29 -8 -30 -26 -13 -10 9
-19 24 -20 33 0 12 -2 11 -8 -4 -5 -13 -8 -6 -8 25 0 25 -8 59 -17 75 -9 17
-16 44 -16 60 0 31 -25 80 -57 113 -10 10 -29 32 -42 50 -20 27 -25 29 -38 16
-13 -12 -12 -19 8 -52 22 -37 22 -37 -31 13 -33 31 -54 45 -57 37 -3 -6 -9 -9
-14 -6 -6 3 -3 -11 5 -31 20 -47 20 -61 1 -45 -9 7 -18 11 -21 8 -8 -8 46 -39
56 -33 6 3 10 -4 10 -16 0 -18 -2 -19 -15 -9 -9 7 -18 10 -22 7 -9 -9 18 -38
28 -31 8 5 30 -41 31 -63 0 -4 9 -20 19 -34 10 -14 16 -29 13 -31 -3 -3 9 -21
26 -39 17 -19 38 -46 46 -61 8 -16 19 -28 25 -28 8 0 7 -6 -2 -17 -7 -10 -10
-15 -5 -11 5 4 17 3 27 -3 28 -14 59 9 60 46 l1 30 7 -30 c5 -22 9 -26 15 -16
7 11 10 11 17 0 7 -11 9 -9 9 6 1 12 8 3 19 -23 9 -23 20 -40 24 -36 4 4 7 2
7 -4 0 -7 6 -12 13 -12 15 0 52 -47 69 -87 18 -45 17 -73 -4 -84 -12 -6 -18
-6 -18 1 0 5 -4 9 -8 7 -10 -3 -82 59 -82 71 0 11 -71 77 -92 85 -10 3 -18 11
-18 17 0 6 -5 8 -12 4 -6 -4 -39 -6 -72 -5 -34 1 -74 -3 -89 -8 -18 -7 -26 -7
-22 -1 9 15 -18 12 -40 -4 -11 -8 -24 -12 -31 -9 -6 2 -27 -10 -45 -26 -18
-17 -39 -31 -46 -31 -7 0 -13 -8 -13 -17 0 -13 -3 -14 -12 -5 -9 9 -7 18 9 39
11 16 25 28 31 28 16 0 25 12 13 19 -5 4 -40 -17 -78 -45 -37 -28 -61 -43 -52
-33 31 37 31 43 2 35 -16 -5 -39 -4 -52 0 -12 5 -28 6 -33 2 -7 -4 -9 2 -6 15
8 27 -2 28 -36 1 -27 -21 -38 -11 -11 11 8 7 15 16 15 21 0 5 -7 9 -15 9 -25
0 -17 15 18 32 l32 16 -32 7 c-18 4 -33 13 -33 20 0 18 30 28 45 15 8 -7 12
-5 12 5 0 8 -4 12 -8 9 -4 -2 -9 1 -11 8 -3 7 -20 11 -45 10 -29 -2 -42 2 -47
13 -4 12 -11 13 -23 7 -13 -7 -24 -3 -43 14 l-24 24 54 -6 55 -6 -29 26 -29
26 56 0 c61 0 90 7 81 21 -3 5 8 9 25 9 16 0 32 -4 35 -9 3 -4 -7 -6 -22 -4
-25 4 -26 3 -7 -9 28 -18 45 -19 45 -2 0 24 47 21 68 -4 7 -10 10 -11 6 -3 -4
8 9 2 30 -14 26 -20 40 -25 48 -17 6 6 16 8 23 6 7 -3 16 -1 20 5 3 6 2 11 -4
11 -6 0 -8 7 -5 15 5 11 -1 15 -21 15 -23 0 -25 2 -15 15 10 12 3 19 -43 40
-51 24 -59 26 -113 16 -67 -13 -81 -21 -35 -21 18 0 30 -4 27 -9 -4 -5 0 -12
6 -15 15 -7 -97 3 -121 11 -13 4 -13 3 -2 -5 18 -13 1 -22 -43 -24 -21 -1 -33
-5 -29 -11 4 -6 0 -8 -11 -4 -9 4 -15 3 -12 -2 3 -4 -8 -8 -24 -9 -17 0 -30 4
-30 9 0 5 10 9 23 10 21 0 21 1 2 9 -16 7 -13 9 18 9 41 1 49 17 15 30 -17 6
-18 9 -5 14 8 3 21 -1 27 -9 16 -19 50 -18 50 1 0 8 6 14 12 13 7 -2 13 4 13
12 0 8 6 22 13 31 12 14 17 14 48 0 19 -8 34 -19 34 -23 0 -4 10 -8 23 -8 20
1 21 2 4 14 -14 11 -15 15 -4 24 16 13 57 8 68 -9 4 -6 12 -8 19 -4 9 5 11 4
6 -3 -4 -8 0 -12 12 -12 31 0 21 27 -17 47 -20 10 -38 21 -41 24 -11 12 -39
17 -42 8 -4 -12 -68 9 -68 22 0 12 -70 11 -149 -2 -48 -9 -61 -14 -46 -19 14
-5 5 -8 -25 -7 -67 0 -188 -54 -369 -166 -19 -11 -32 -16 -28 -10 8 13 121 80
212 125 108 54 236 91 350 100 24 2 29 7 26 23 -3 20 -3 20 18 1 17 -15 23
-16 36 -6 8 7 13 15 11 19 -7 11 36 11 57 -1 15 -7 22 -7 28 3 6 10 9 8 9 -8
0 -24 26 -43 59 -43 30 0 26 16 -16 57 -20 21 -31 39 -25 41 7 2 12 8 12 12 0
15 -48 58 -56 51 -4 -3 -4 -1 0 6 3 6 2 14 -4 18 -5 3 -10 21 -9 38 1 33 3 30
13 -15 4 -16 13 -28 21 -28 8 0 15 -4 15 -8 0 -17 43 -54 50 -43 4 7 11 2 20
-13 13 -26 40 -43 40 -26 0 6 5 10 10 10 6 0 10 -6 9 -12 -3 -27 2 -37 16 -32
8 4 15 1 15 -5 0 -6 5 -11 10 -11 6 0 10 8 10 18 -1 21 -23 52 -39 52 -6 0
-11 6 -11 13 0 7 -9 18 -20 25 -27 17 -26 35 2 27 18 -6 20 -5 13 11 -5 11 -9
57 -10 104 0 47 -4 93 -9 103 -4 9 -5 29 -1 45 5 16 9 21 12 13 5 -11 7 -11
14 0z m-911 -11 c0 -5 -7 -10 -16 -10 -8 0 -12 5 -9 10 3 6 10 10 16 10 5 0 9
-4 9 -10z m765 0 c3 -5 1 -10 -4 -10 -6 0 -11 5 -11 10 0 6 2 10 4 10 3 0 8
-4 11 -10z m4025 0 c0 -5 -8 -10 -17 -10 -15 0 -16 2 -3 10 19 12 20 12 20 0z
m-3998 -37 c-3 -16 -7 -22 -10 -15 -4 13 4 42 11 42 2 0 2 -12 -1 -27z m-867
-33 c-3 -5 -1 -10 5 -10 7 0 10 -6 7 -14 -3 -7 -1 -18 4 -23 7 -7 5 -12 -6
-17 -9 -3 -13 -2 -10 4 3 6 1 10 -4 10 -12 0 -15 43 -4 53 10 10 15 8 8 -3z
m2530 -50 c3 -5 -1 -10 -10 -10 -9 0 -13 5 -10 10 3 6 8 10 10 10 2 0 7 -4 10
-10z m-2475 -53 c0 -8 -3 -8 -9 1 -4 8 -11 13 -15 13 -20 -3 -26 0 -21 9 8 13
45 -6 45 -23z m821 -8 c25 -55 39 -58 39 -8 0 23 2 40 4 38 8 -9 13 -98 5 -93
-5 3 -9 -1 -9 -8 -1 -7 -12 0 -25 16 -13 17 -22 33 -19 37 2 4 -7 14 -21 23
-29 19 -33 34 -8 32 10 0 25 -17 34 -37z m-81 -14 c0 -8 -4 -15 -10 -15 -5 0
-10 4 -10 9 0 23 -41 4 -57 -26 -10 -18 -22 -33 -26 -33 -5 0 -6 -7 -3 -16 5
-13 -1 -15 -39 -11 -28 3 -50 0 -62 -9 -17 -13 -17 -13 2 -14 19 -1 18 -2 -2
-10 -15 -6 -21 -15 -16 -25 4 -11 1 -16 -8 -15 -31 5 -60 -1 -54 -9 3 -5 0
-13 -6 -17 -8 -4 -9 -3 -5 4 4 7 1 12 -7 12 -8 0 -17 -7 -21 -15 -3 -8 -15
-15 -26 -15 -11 0 -20 -5 -20 -11 0 -5 4 -8 9 -5 5 3 14 0 20 -8 10 -12 6 -13
-21 -7 -18 4 -44 4 -58 1 -14 -4 -38 -5 -55 -3 -34 5 -59 23 -32 23 9 0 17 5
17 11 0 7 -12 9 -35 5 -28 -6 -34 -4 -29 8 3 8 16 17 30 20 36 9 29 22 -18 39
l-43 15 37 1 c40 1 60 17 31 24 -14 4 -13 5 5 6 12 0 22 6 22 11 0 6 6 10 14
10 8 0 16 5 18 12 2 6 20 13 39 15 55 5 151 14 189 17 19 2 42 6 50 9 8 4 25
8 37 10 12 2 26 6 29 10 4 4 31 7 61 7 40 0 53 -4 53 -15z m227 -7 c-3 -8 -6
-5 -6 6 -1 11 2 17 5 13 3 -3 4 -12 1 -19z m-70 -20 c-3 -8 -6 -5 -6 6 -1 11
2 17 5 13 3 -3 4 -12 1 -19z m530 -20 c-3 -8 -6 -5 -6 6 -1 11 2 17 5 13 3 -3
4 -12 1 -19z m-666 -68 c1 -5 2 -14 3 -20 0 -5 10 -16 21 -24 11 -9 15 -16 9
-16 -18 0 -64 40 -64 56 0 16 29 20 31 4z m669 -30 c0 -7 6 -7 18 -1 24 13 52
-10 52 -43 0 -32 -17 -26 -30 10 -12 29 -30 32 -30 3 0 -11 4 -18 9 -15 5 3
11 -16 13 -43 1 -27 0 -47 -4 -44 -5 2 -8 20 -8 39 0 19 -4 33 -9 30 -5 -3
-14 8 -20 26 -14 38 -14 48 -1 48 6 0 10 -5 10 -10z m-480 -15 c0 -8 -4 -15
-10 -15 -5 0 -7 7 -4 15 4 8 8 15 10 15 2 0 4 -7 4 -15z m-335 -13 c-3 -3 -11
0 -18 7 -9 10 -8 11 6 5 10 -3 15 -9 12 -12z m894 -63 c-20 -12 -22 -4 -7 20
11 18 14 19 16 5 2 -9 -2 -20 -9 -25z m-1256 -16 c-7 -2 -19 -2 -25 0 -7 3 -2
5 12 5 14 0 19 -2 13 -5z m447 -42 c0 -5 3 -17 7 -27 4 -12 2 -15 -8 -12 -15
5 -22 48 -8 48 5 0 9 -4 9 -9z m-130 -31 c0 -5 -2 -10 -4 -10 -3 0 -8 5 -11
10 -3 6 -1 10 4 10 6 0 11 -4 11 -10z m540 -15 c13 -14 21 -25 18 -25 -2 0
-15 11 -28 25 -13 14 -21 25 -18 25 2 0 15 -11 28 -25z m510 -35 c0 -24 -10
-50 -20 -50 -4 0 -11 16 -14 36 -4 19 -10 42 -13 51 -5 13 -2 13 20 -2 15 -9
27 -25 27 -35z m-1140 -10 c0 -13 -11 -13 -30 0 -12 8 -11 10 8 10 12 0 22 -4
22 -10z m608 -14 c32 -17 70 -56 54 -56 -7 0 -12 5 -12 10 0 6 -3 9 -7 8 -11
-2 -73 35 -73 45 0 10 7 9 38 -7z m482 -11 c0 -8 -2 -15 -4 -15 -2 0 -6 7 -10
15 -3 8 -1 15 4 15 6 0 10 -7 10 -15z m-43 -17 c-3 -8 -6 -5 -6 6 -1 11 2 17
5 13 3 -3 4 -12 1 -19z m224 -31 c16 5 20 1 17 -13 -2 -11 -7 -22 -12 -26 -12
-8 -46 34 -38 46 3 6 7 6 9 -1 2 -6 13 -8 24 -6z m-1303 -22 c-2 -5 -7 -9 -12
-7 -4 1 -20 -5 -35 -15 -26 -18 -110 -58 -100 -49 3 3 32 23 65 45 56 38 89
48 82 26z m883 -102 c-12 -20 -14 -14 -5 12 4 9 9 14 11 11 3 -2 0 -13 -6 -23z
m1206 -19 c-3 -3 -12 -4 -19 -1 -8 3 -5 6 6 6 11 1 17 -2 13 -5z m-1747 -315
c0 -7 12 -10 29 -7 23 3 31 0 36 -16 4 -12 7 -24 6 -28 -1 -10 3 -10 33 2 17
6 26 6 26 0 0 -6 14 -10 30 -10 17 0 30 -4 30 -10 0 -5 -8 -10 -18 -10 -10 0
-24 -6 -31 -12 -10 -11 -11 -10 -6 4 6 15 3 16 -30 7 -28 -8 -39 -7 -48 3 -7
7 -11 12 -10 9 5 -10 -73 -71 -91 -71 -15 0 -17 3 -8 8 7 5 10 16 6 26 -6 16
17 43 56 67 13 8 13 10 0 18 -9 7 -17 6 -20 0 -4 -5 -20 -11 -36 -14 -16 -2
-39 -7 -51 -11 -40 -11 -25 16 20 36 48 22 77 25 77 9z m470 -41 c0 -12 -3
-18 -7 -15 -3 4 -13 1 -21 -6 -13 -10 -14 -9 -7 3 11 20 27 40 31 40 2 0 4
-10 4 -22z m1583 -15 c-7 -2 -21 -2 -30 0 -10 3 -4 5 12 5 17 0 24 -2 18 -5z
m130 -10 c-7 -2 -19 -2 -25 0 -7 3 -2 5 12 5 14 0 19 -2 13 -5z m-230 -70 c-7
-2 -19 -2 -25 0 -7 3 -2 5 12 5 14 0 19 -2 13 -5z m75 0 c-10 -2 -26 -2 -35 0
-10 3 -2 5 17 5 19 0 27 -2 18 -5z m-1902 -86 c-11 -8 -30 -11 -45 -8 l-26 5
30 7 c51 11 61 10 41 -4z m29 -27 c-3 -5 -13 -10 -21 -10 -8 0 -14 5 -14 10 0
6 9 10 21 10 11 0 17 -4 14 -10z m302 -56 c-3 -3 -12 -4 -19 -1 -8 3 -5 6 6 6
11 1 17 -2 13 -5z m-141 -97 c3 -9 16 -12 34 -9 23 3 30 0 30 -12 0 -9 -8 -20
-17 -23 -14 -5 -11 -8 12 -15 18 -4 34 -3 42 4 9 7 13 7 13 -1 0 -6 -10 -15
-23 -20 -13 -5 -29 -16 -36 -25 -14 -17 -7 -21 28 -17 7 2 10 -2 6 -8 -4 -7 7
-11 29 -11 19 0 38 -5 41 -10 4 -6 14 -10 23 -9 10 1 32 -2 50 -6 l34 -8 -49
-17 c-29 -10 -48 -22 -48 -32 0 -20 -24 -48 -40 -48 -7 0 -32 -22 -54 -49 -43
-51 -53 -73 -23 -50 9 7 -15 -20 -54 -61 -82 -87 -111 -125 -176 -228 -26 -42
-55 -77 -63 -78 -8 -1 -13 2 -9 7 3 5 9 7 14 4 5 -3 12 5 16 17 11 36 78 130
201 286 63 78 116 149 119 157 6 15 -21 22 -28 7 -1 -4 -41 -40 -88 -79 -176
-147 -269 -246 -362 -388 -64 -96 -79 -115 -58 -75 40 79 148 219 240 310 129
130 243 234 253 232 12 -3 8 33 -5 46 -20 20 -61 14 -109 -16 -58 -37 -315
-172 -326 -172 -4 1 10 10 32 22 40 20 356 198 364 205 2 1 2 5 -1 8 -6 7 -95
-32 -103 -45 -4 -6 -10 -8 -14 -5 -9 5 -129 -40 -196 -73 -104 -52 -326 -190
-314 -196 8 -3 3 -3 -10 0 -14 4 -21 2 -17 -4 3 -5 -5 -13 -18 -16 -13 -3 -32
-9 -43 -12 -16 -6 164 103 295 178 29 17 49 35 45 40 -4 7 -1 8 7 3 7 -4 15
-3 19 2 6 8 195 92 261 115 17 5 29 13 25 16 -3 3 5 16 17 29 12 13 16 23 10
23 -7 0 -11 5 -9 12 1 7 -3 12 -10 13 -6 0 -21 10 -33 23 -11 12 -27 22 -35
22 -39 0 -5 36 40 43 56 8 66 7 71 -6z m438 -72 c3 -8 1 -15 -4 -15 -6 0 -10
7 -10 15 0 8 2 15 4 15 2 0 6 -7 10 -15z m1030 -45 c-6 -6 -19 -7 -30 -3 -17
6 -17 8 6 13 29 8 38 4 24 -10z m-466 -91 c2 -12 -4 -15 -28 -11 -17 2 -32 8
-35 12 -3 5 5 6 17 2 15 -4 19 -2 13 7 -5 9 -2 12 11 9 10 -2 20 -10 22 -19z
m-1428 -209 c-8 -5 -19 -10 -25 -10 -5 0 -3 5 5 10 8 5 20 10 25 10 6 0 3 -5
-5 -10z m-50 -20 c-8 -5 -19 -10 -25 -10 -5 0 -3 5 5 10 8 5 20 10 25 10 6 0
3 -5 -5 -10z m570 6 c0 -2 -8 -10 -17 -17 -16 -13 -17 -12 -4 4 13 16 21 21
21 13z m-843 -102 c-16 -9 -31 -13 -34 -10 -3 3 5 10 18 15 37 15 47 12 16 -5z
m1373 -49 c0 -7 12 -16 26 -19 15 -4 24 -9 21 -13 -3 -3 -2 -16 3 -28 7 -19 5
-25 -10 -30 -11 -4 -20 -11 -20 -16 0 -14 -19 -11 -36 5 -8 8 -23 12 -36 8
-22 -5 -22 -5 -5 12 27 28 39 54 26 61 -6 4 -8 14 -5 22 3 8 1 11 -4 8 -6 -3
-10 -2 -10 4 0 14 23 20 38 8 6 -5 12 -15 12 -22z m510 31 c0 -2 -7 -6 -15
-10 -8 -3 -15 -1 -15 4 0 6 7 10 15 10 8 0 15 -2 15 -4z m647 -105 c0 -11 -5
-17 -9 -15 -11 7 -10 34 1 34 6 0 9 -9 8 -19z m33 -21 c0 -5 -2 -10 -4 -10 -3
0 -8 5 -11 10 -3 6 -1 10 4 10 6 0 11 -4 11 -10z m-1890 -90 c-11 -22 -23 -40
-25 -40 -3 0 4 18 15 40 11 22 23 40 25 40 3 0 -4 -18 -15 -40z m21 -21 c-25
-41 -27 -33 -4 16 10 20 19 32 21 27 2 -6 -6 -25 -17 -43z m453 36 c-4 -8 -10
-12 -15 -9 -11 6 -2 24 11 24 5 0 7 -7 4 -15z m-654 1 c0 -2 -8 -10 -17 -17
-16 -13 -17 -12 -4 4 13 16 21 21 21 13z m995 -67 c-4 -5 1 -12 9 -15 9 -3 13
-11 9 -17 -3 -5 -2 -7 4 -4 6 4 19 0 29 -8 19 -14 19 -14 0 -28 -25 -18 -61
-16 -62 3 -1 8 -2 21 -3 28 0 6 -5 12 -11 12 -5 0 -9 -3 -9 -7 3 -21 -3 -29
-22 -30 -16 -2 -20 3 -18 25 5 41 37 74 61 61 10 -5 16 -14 13 -20z m-1015 1
c-6 -11 -13 -20 -16 -20 -2 0 0 9 6 20 6 11 13 20 16 20 2 0 0 -9 -6 -20z
m1563 -20 c3 -11 3 -20 1 -20 -2 0 -8 9 -14 20 -6 11 -7 20 -2 20 6 0 12 -9
15 -20z m-1432 -67 c-11 -21 -20 -35 -21 -31 0 12 33 78 38 74 2 -2 -6 -21
-17 -43z m869 -2 c0 -5 -5 -11 -11 -13 -17 -6 1 -38 21 -38 11 0 22 -4 25 -10
3 -6 -1 -7 -9 -4 -18 7 -22 -11 -5 -22 6 -3 18 1 27 10 14 14 15 18 3 25 -7 5
-9 11 -4 14 11 7 35 -6 35 -19 0 -5 2 -13 4 -19 2 -5 4 -21 6 -35 2 -14 9 -24
16 -22 15 3 15 -8 -2 -30 -18 -24 -34 -23 -58 5 -11 12 -17 16 -13 10 4 -8 0
-13 -9 -13 -9 0 -16 -5 -16 -12 0 -6 -7 -20 -17 -30 -9 -11 -11 -18 -5 -18 17
0 15 -29 -2 -46 -13 -12 -16 -9 -26 21 -6 19 -9 39 -5 45 3 5 2 10 -4 10 -7 0
-7 8 -1 25 6 16 6 25 -1 25 -11 0 -10 67 3 92 5 10 4 19 -2 23 -17 10 1 35 26
35 13 0 24 -4 24 -9z m-190 -31 c0 -5 -4 -10 -9 -10 -6 0 -13 5 -16 10 -3 6 1
10 9 10 9 0 16 -4 16 -10z m-10 -42 c-1 -7 -6 -23 -13 -36 -13 -22 -14 -22
-29 -5 -27 32 -33 47 -15 40 9 -3 19 -2 22 3 9 14 35 12 35 -2z m-112 -76 c18
-25 26 -55 23 -91 -2 -20 -27 4 -34 32 -3 12 -10 37 -15 55 -13 39 0 42 26 4z
m-151 -44 c-3 -7 -5 -2 -5 12 0 14 2 19 5 13 2 -7 2 -19 0 -25z m76 -25 c3
-18 2 -33 -3 -33 -17 0 -27 27 -22 59 5 38 17 26 25 -26z m-96 -8 c-2 -20 -9
-41 -15 -47 -7 -7 -8 0 -1 28 4 22 9 42 9 47 0 4 2 7 5 7 3 0 4 -16 2 -35z
m508 25 c-3 -5 -11 -10 -16 -10 -6 0 -7 5 -4 10 3 6 11 10 16 10 6 0 7 -4 4
-10z m-155 -124 c0 -3 -7 -3 -15 0 -8 4 -15 13 -15 21 0 12 2 12 15 -1 8 -8
15 -17 15 -20z m-129 -46 c5 0 9 -5 9 -11 0 -8 -5 -8 -15 1 -8 7 -14 20 -14
29 1 13 2 13 6 -1 2 -10 9 -18 14 -18z m129 21 c0 -6 -4 -12 -8 -15 -5 -3 -9
1 -9 9 0 8 4 15 9 15 4 0 8 -4 8 -9z m-30 -116 c0 -15 -21 -1 -36 24 -10 17
-21 28 -25 25 -4 -2 -11 1 -15 7 -4 7 -3 9 2 6 6 -3 16 -2 24 3 10 6 19 -1 32
-26 10 -19 18 -36 18 -39z m-119 12 c-14 -14 -26 17 -16 41 6 15 8 14 16 -7 6
-16 6 -28 0 -34z m-48 13 c3 -11 1 -20 -4 -20 -5 0 -9 9 -9 20 0 11 2 20 4 20
2 0 6 -9 9 -20z m-37 -64 c7 -30 -2 -47 -21 -40 -10 4 -11 12 -5 29 5 13 6 26
3 29 -4 3 -1 6 5 6 6 0 14 -11 18 -24z m627 -230 c38 -8 74 -21 81 -28 7 -7
24 -23 37 -34 27 -24 197 -203 217 -227 6 -9 12 -21 12 -27 0 -13 9 -25 87
-108 35 -37 63 -75 63 -85 0 -10 7 -20 15 -24 9 -3 15 -13 14 -22 -1 -9 1 -24
6 -34 8 -20 1 -135 -10 -145 -3 -4 -10 0 -15 8 -6 9 -10 10 -10 3 0 -6 7 -18
15 -27 20 -20 20 -66 -1 -66 -18 0 -44 24 -44 40 0 8 -6 9 -17 5 -54 -24 -309
-27 -323 -5 -5 8 -22 11 -44 8 -20 -2 -36 -1 -36 2 0 3 -15 14 -32 25 -18 10
-39 25 -46 32 -15 14 -59 16 -142 4 -30 -5 -64 -5 -75 -1 -11 5 -39 14 -62 21
-27 8 -43 18 -43 28 0 14 -2 14 -10 1 -9 -13 -13 -12 -29 8 -16 18 -29 22 -80
22 -37 0 -61 4 -61 11 0 6 -10 8 -22 5 -13 -3 -17 -3 -10 0 6 3 12 12 12 20 0
8 5 14 10 14 7 0 7 7 0 20 -12 23 -3 93 11 84 5 -3 9 4 9 16 0 11 7 23 15 26
8 4 15 9 15 13 0 11 169 179 174 174 3 -3 18 16 33 42 15 26 34 53 40 60 7 8
18 24 23 37 41 90 102 146 140 128 8 -4 46 -15 83 -24z m-1882 -189 c-10 -9
-11 -8 -5 6 3 10 9 15 12 12 3 -3 0 -11 -7 -18z m-191 -177 c-16 -30 -22 -19
-7 13 6 14 13 22 15 17 2 -5 -2 -19 -8 -30z m536 -105 c-1 -8 -8 -21 -16 -28
-7 -6 -11 -7 -8 -2 3 6 8 18 11 28 8 21 16 23 13 2z m947 -71 c20 -4 37 -11
37 -15 0 -5 -17 -10 -37 -10 -24 -1 -29 -3 -15 -6 12 -2 22 -11 22 -19 0 -18
-50 -19 -74 -1 -15 11 -17 17 -7 35 13 24 17 25 74 16z m-1433 -64 c0 -16 -4
-30 -10 -30 -11 0 -14 43 -3 53 11 12 13 8 13 -23z m2035 -148 c-3 -3 -11 0
-18 7 -9 10 -8 11 6 5 10 -3 15 -9 12 -12z m-872 -69 c31 -3 57 -10 57 -14 0
-5 13 -9 29 -9 35 0 269 -77 291 -95 18 -15 85 -35 120 -35 14 0 38 -7 54 -15
15 -8 33 -15 39 -15 24 0 107 -66 124 -98 14 -26 29 -36 68 -48 59 -17 95 -45
95 -72 0 -11 6 -23 13 -25 9 -4 8 -8 -3 -17 -11 -9 -12 -13 -2 -17 14 -6 17
-53 2 -53 -5 0 -10 -22 -10 -48 0 -36 -5 -51 -20 -62 -11 -8 -20 -19 -20 -25
0 -5 -25 -11 -55 -13 -44 -3 -55 0 -55 12 0 12 -11 16 -46 16 -47 0 -74 16
-74 44 0 9 -5 16 -11 16 -6 0 -24 14 -39 30 -17 18 -38 30 -53 30 -14 0 -28 6
-31 13 -5 9 -7 9 -12 0 -3 -7 -16 -13 -28 -13 -12 0 -28 -9 -36 -20 -8 -12
-26 -20 -42 -20 -15 0 -28 -4 -28 -10 0 -5 -20 -10 -45 -10 -25 0 -45 5 -45
10 0 6 -38 10 -94 10 -86 0 -95 -2 -101 -20 -5 -15 -15 -20 -41 -20 -19 0 -34
5 -34 10 0 6 -7 10 -15 10 -11 0 -15 11 -15 40 0 22 -4 40 -10 40 -5 0 -10 5
-10 11 0 21 -28 38 -84 48 -31 6 -64 17 -72 26 -9 8 -24 15 -35 15 -10 0 -19
4 -19 9 0 5 -9 13 -20 16 -11 3 -20 11 -20 16 0 14 -26 39 -39 39 -6 0 -11 9
-11 20 0 11 6 20 14 20 10 0 14 13 13 49 -1 27 -5 44 -9 38 -10 -16 -18 10
-15 48 2 33 42 83 50 62 3 -8 11 -4 24 11 11 12 28 22 37 22 9 0 16 5 16 10 0
6 11 10 25 10 15 0 25 6 25 14 0 11 15 16 53 19 28 2 61 2 72 0 11 -2 46 -6
78 -10z m1117 -433 c0 -6 35 -10 85 -10 57 0 85 -4 85 -11 0 -8 14 -10 39 -6
43 5 81 -13 81 -39 0 -8 9 -14 21 -14 15 0 19 -4 15 -16 -3 -9 -6 -22 -6 -30
0 -8 -5 -14 -10 -14 -14 0 -80 -66 -80 -80 0 -5 -4 -10 -10 -10 -5 0 -10 6
-10 13 0 7 -9 19 -20 27 -11 8 -20 20 -20 28 0 20 -47 62 -70 62 -16 0 -20 -6
-20 -30 0 -25 -4 -30 -25 -30 -29 0 -75 40 -75 65 0 8 -7 15 -15 15 -8 0 -15
5 -15 10 0 6 -13 10 -30 10 -25 0 -30 4 -30 25 0 18 5 25 20 25 11 0 20 5 20
10 0 6 16 10 35 10 19 0 35 -4 35 -10z"/>
<path d="M5181 7641 c-8 -5 -9 -11 -3 -15 5 -3 12 1 16 9 6 17 6 18 -13 6z"/>
<path d="M2141 5464 c0 -11 3 -14 6 -6 3 7 2 16 -1 19 -3 4 -6 -2 -5 -13z"/>
<path d="M2177 5456 c-6 -15 1 -26 15 -26 4 0 8 9 8 20 0 23 -15 27 -23 6z"/>
<path d="M2282 4660 c0 -14 2 -19 5 -12 2 6 2 18 0 25 -3 6 -5 1 -5 -13z"/>
<path d="M2421 4344 c0 -11 3 -14 6 -6 3 7 2 16 -1 19 -3 4 -6 -2 -5 -13z"/>
<path d="M2451 4314 c0 -11 3 -14 6 -6 3 7 2 16 -1 19 -3 4 -6 -2 -5 -13z"/>
<path d="M2551 4074 c0 -11 3 -14 6 -6 3 7 2 16 -1 19 -3 4 -6 -2 -5 -13z"/>
<path d="M1615 5290 c4 -22 24 -60 31 -60 3 0 2 5 -1 10 -4 6 -2 17 4 24 9 10
6 17 -13 30 -23 15 -25 15 -21 -4z"/>
<path d="M1516 5212 c-9 -8 -7 -24 2 -18 4 2 14 1 22 -5 10 -6 11 -9 3 -9 -7
0 -13 -7 -13 -15 0 -28 26 -15 28 14 2 21 -3 30 -17 34 -11 3 -22 2 -25 -1z"/>
<path d="M1496 5144 c1 -13 -2 -22 -7 -18 -5 3 -7 9 -4 14 3 5 1 11 -5 15 -16
10 -12 -21 5 -35 8 -7 15 -18 15 -25 0 -6 7 -12 14 -12 8 0 15 3 14 6 0 3 1
15 2 26 2 17 3 17 10 -5 l8 -25 1 28 c1 29 -8 34 -27 15 -9 -9 -11 -7 -7 9 2
12 -2 24 -9 26 -9 4 -12 -3 -10 -19z"/>
<path d="M1653 5135 c0 -8 4 -12 9 -9 5 3 6 10 3 15 -9 13 -12 11 -12 -6z"/>
<path d="M949 5083 c-13 -17 -13 -17 6 -3 11 8 22 16 24 17 2 2 0 3 -6 3 -6 0
-17 -8 -24 -17z"/>
<path d="M1096 4871 c-4 -5 3 -7 14 -4 23 6 26 13 6 13 -8 0 -17 -4 -20 -9z"/>
<path d="M1527 4853 c-4 -3 -7 -11 -7 -17 0 -6 5 -5 12 2 6 6 9 14 7 17 -3 3
-9 2 -12 -2z"/>
<path d="M1504 4792 c12 -13 17 -13 34 0 20 13 19 14 -14 14 -30 0 -32 -2 -20
-14z"/>
<path d="M1395 4790 c-4 -6 -10 -8 -15 -5 -4 3 -14 -2 -21 -11 -13 -16 -16
-16 64 1 15 3 27 10 27 15 0 13 -47 13 -55 0z"/>
<path d="M1428 4743 c7 -3 16 -2 19 1 4 3 -2 6 -13 5 -11 0 -14 -3 -6 -6z"/>
<path d="M2431 4944 c0 -12 6 -24 14 -28 8 -3 15 -1 15 4 0 6 -4 10 -9 10 -5
0 -12 8 -14 18 -4 13 -5 12 -6 -4z"/>
<path d="M2495 4840 c3 -5 8 -10 11 -10 2 0 4 5 4 10 0 6 -5 10 -11 10 -5 0
-7 -4 -4 -10z"/>
<path d="M2132 4470 c0 -14 2 -19 5 -12 2 6 2 18 0 25 -3 6 -5 1 -5 -13z"/>
<path d="M2121 4394 c0 -11 3 -14 6 -6 3 7 2 16 -1 19 -3 4 -6 -2 -5 -13z"/>
<path d="M2130 4358 c0 -9 5 -20 11 -23 17 -11 20 0 4 21 -13 17 -14 17 -15 2z"/>
<path d="M1830 4290 c0 -6 7 -10 15 -10 8 0 15 2 15 4 0 2 -7 6 -15 10 -8 3
-15 1 -15 -4z"/>
<path d="M2050 4252 c0 -15 22 -30 36 -25 11 4 11 7 -1 19 -15 15 -35 19 -35
6z"/>
<path d="M1969 4217 c7 -10 26 -17 42 -17 15 0 31 -4 34 -10 3 -5 11 -10 16
-10 6 0 7 5 4 11 -7 11 -39 25 -83 36 -24 6 -26 5 -13 -10z"/>
<path d="M1790 4140 c0 -5 5 -10 11 -10 5 0 7 5 4 10 -3 6 -8 10 -11 10 -2 0
-4 -4 -4 -10z"/>
<path d="M2030 4105 c14 -8 32 -14 40 -14 9 0 4 6 -10 14 -14 8 -32 14 -40 14
-9 0 -4 -6 10 -14z"/>
<path d="M2381 4024 c0 -11 3 -14 6 -6 3 7 2 16 -1 19 -3 4 -6 -2 -5 -13z"/>
<path d="M2158 4003 c7 -3 16 -2 19 1 4 3 -2 6 -13 5 -11 0 -14 -3 -6 -6z"/>
<path d="M2010 3993 c-36 -14 -40 -54 -6 -51 14 1 22 6 20 10 -3 4 2 8 11 8 9
0 13 -4 10 -10 -3 -5 -2 -10 4 -10 5 0 13 5 16 10 4 6 10 8 13 6 4 -2 23 -1
42 4 31 7 28 8 -30 10 -36 1 -56 4 -45 7 35 9 41 23 10 22 -17 0 -37 -3 -45
-6z"/>
<path d="M1690 3969 c0 -5 26 -9 57 -9 31 0 54 2 51 5 -9 10 -108 13 -108 4z"/>
<path d="M2148 3923 c7 -3 16 -2 19 1 4 3 -2 6 -13 5 -11 0 -14 -3 -6 -6z"/>
<path d="M2140 3900 c0 -13 11 -13 30 0 12 8 11 10 -7 10 -13 0 -23 -4 -23
-10z"/>
<path d="M1805 3830 c-3 -6 1 -7 9 -4 18 7 21 14 7 14 -6 0 -13 -4 -16 -10z"/>
<path d="M2205 3040 c-3 -5 -2 -10 4 -10 5 0 13 5 16 10 3 6 2 10 -4 10 -5 0
-13 -4 -16 -10z"/>
<path d="M2813 5282 c-6 -4 -17 -26 -24 -50 -11 -37 -10 -45 4 -59 19 -19 20
-16 35 53 10 45 4 67 -15 56z"/>
<path d="M3305 5137 c-15 -12 -16 -15 -4 -22 8 -5 11 -5 7 0 -4 4 0 14 10 21
23 18 11 18 -13 1z"/>
<path d="M3425 4920 c4 -6 11 -8 16 -5 14 9 11 15 -7 15 -8 0 -12 -5 -9 -10z"/>
<path d="M2895 4870 c-3 -5 -1 -10 4 -10 6 0 11 5 11 10 0 6 -2 10 -4 10 -3 0
-8 -4 -11 -10z"/>
<path d="M3400 4839 c0 -4 6 -12 14 -18 12 -10 17 -8 26 8 9 19 8 21 -15 19
-14 -1 -25 -5 -25 -9z"/>
<path d="M2892 4700 c0 -14 2 -19 5 -12 2 6 2 18 0 25 -3 6 -5 1 -5 -13z"/>
<path d="M2871 4684 c0 -11 3 -14 6 -6 3 7 2 16 -1 19 -3 4 -6 -2 -5 -13z"/>
<path d="M2910 4478 c0 -16 5 -28 10 -28 13 0 13 20 0 40 -8 12 -10 9 -10 -12z"/>
<path d="M2931 4390 c-1 -34 9 -70 20 -70 12 0 12 33 0 46 -5 5 -11 18 -14 29
-4 16 -5 16 -6 -5z"/>
<path d="M2974 4332 c3 -6 2 -13 -4 -17 -5 -3 -10 -15 -10 -26 0 -11 4 -18 9
-15 5 3 14 -14 20 -39 6 -25 15 -45 20 -45 5 0 8 -11 6 -25 -1 -16 3 -25 12
-25 8 0 11 -4 8 -10 -3 -5 -2 -10 3 -10 14 0 22 52 10 73 -5 10 -7 21 -4 24 2
3 -6 15 -20 28 -13 12 -27 36 -30 54 -4 17 -11 34 -17 38 -5 3 -7 1 -3 -5z"/>
<path d="M3325 4250 c-3 -5 -2 -10 4 -10 5 0 8 -9 6 -21 -2 -11 1 -30 6 -43
18 -40 -14 -127 -67 -178 -55 -53 -63 -56 -146 -57 -57 -1 -70 2 -87 21 -18
19 -21 19 -27 5 -3 -9 -2 -34 3 -54 9 -38 9 -38 63 -41 51 -3 91 4 165 31 88
32 159 135 154 224 -3 52 -19 103 -31 103 -4 0 -8 7 -8 15 0 17 -25 20 -35 5z"/>
<path d="M3240 4190 c-18 -12 -2 -12 25 0 13 6 15 9 5 9 -8 0 -22 -4 -30 -9z"/>
<path d="M3187 4152 c-21 -10 -35 -21 -31 -25 4 -4 0 -7 -9 -7 -20 0 -107 -87
-107 -108 0 -12 3 -13 12 -4 17 17 39 15 53 -4 12 -18 72 -23 115 -11 14 4 36
22 50 39 14 18 19 29 12 24 -9 -6 -11 0 -7 23 3 19 1 31 -6 31 -6 0 -9 12 -7
28 4 34 -20 38 -75 14z"/>
<path d="M3605 4160 c-3 -5 1 -10 10 -10 9 0 13 5 10 10 -3 6 -8 10 -10 10 -2
0 -7 -4 -10 -10z"/>
<path d="M3501 3979 c11 -7 11 -9 1 -9 -7 0 -20 -7 -28 -15 -9 -8 -24 -15 -35
-15 -10 0 -19 -4 -19 -10 0 -5 -6 -8 -12 -6 -7 1 -10 1 -5 -1 12 -8 8 -18 -14
-31 -12 -8 -18 -9 -14 -3 3 6 -1 11 -10 11 -9 0 -14 -4 -10 -9 3 -5 -4 -16
-15 -24 -11 -7 -17 -17 -12 -22 4 -5 1 -5 -6 -1 -15 9 -65 -21 -57 -34 3 -5
-3 -13 -12 -19 -16 -9 -16 -10 -1 -11 9 0 19 -6 21 -12 3 -8 6 -9 6 -2 1 7 12
9 28 6 25 -5 25 -6 8 -13 -18 -7 -18 -8 5 -9 14 -2 32 -2 40 -1 10 1 8 -3 -5
-10 -11 -6 -26 -19 -33 -28 -7 -9 -18 -16 -24 -16 -6 0 -13 -5 -15 -12 -3 -8
16 -11 64 -9 82 2 136 33 132 76 -2 14 7 41 19 60 35 56 23 86 -23 56 -33 -22
-31 -14 5 26 87 95 87 93 43 94 -23 1 -30 -1 -22 -7z m-121 -209 c0 -5 -5 -10
-11 -10 -5 0 -7 5 -4 10 3 6 8 10 11 10 2 0 4 -4 4 -10z"/>
<path d="M2876 3902 c6 -4 14 -14 17 -22 4 -10 6 -8 6 8 1 15 -5 22 -16 22
-11 0 -14 -3 -7 -8z"/>
<path d="M2736 3861 c-4 -7 -5 -15 -2 -18 9 -9 19 4 14 18 -4 11 -6 11 -12 0z"/>
<path d="M3238 3733 c6 -2 18 -2 25 0 6 3 1 5 -13 5 -14 0 -19 -2 -12 -5z"/>
<path d="M3019 3728 c-10 -35 3 -60 22 -41 11 11 2 43 -12 43 -5 0 -9 -1 -10
-2z"/>
<path d="M2790 3695 c0 -8 4 -15 10 -15 5 0 7 7 4 15 -4 8 -8 15 -10 15 -2 0
-4 -7 -4 -15z"/>
<path d="M3030 3651 c0 -6 4 -13 10 -16 6 -3 7 1 4 9 -7 18 -14 21 -14 7z"/>
<path d="M3060 3593 c0 -10 6 -30 14 -44 9 -17 10 -32 4 -43 -6 -11 -5 -16 2
-16 7 0 5 -6 -3 -15 -17 -16 -11 -59 6 -48 6 3 7 1 3 -5 -4 -7 -4 -17 -1 -22
9 -15 38 17 29 32 -4 7 -4 10 1 6 7 -7 45 32 45 47 0 13 -48 53 -56 47 -5 -4
-2 2 6 12 8 11 10 17 5 14 -6 -4 -17 7 -24 23 -14 32 -31 39 -31 12z"/>
<path d="M3286 3455 c-3 -8 -1 -15 3 -15 5 0 11 7 15 15 3 8 1 15 -3 15 -5 0
-11 -7 -15 -15z"/>
<path d="M3468 3333 c7 -3 16 -2 19 1 4 3 -2 6 -13 5 -11 0 -14 -3 -6 -6z"/>
<path d="M3673 3027 c0 -8 6 -14 14 -14 9 0 10 4 2 14 -6 7 -12 13 -14 13 -1
0 -2 -6 -2 -13z"/>
<path d="M3430 2995 c-7 -8 -17 -12 -24 -8 -12 8 13 -28 29 -39 6 -5 4 -12 -5
-18 -11 -7 3 -9 46 -9 34 1 67 -2 73 -5 6 -4 11 -1 11 7 0 20 -46 67 -65 67
-8 0 -15 5 -15 10 0 15 -36 12 -50 -5z"/>
<path d="M3610 2986 c0 -9 -8 -16 -19 -16 -17 0 -18 -3 -8 -25 7 -14 19 -25
27 -26 8 0 28 -2 44 -4 16 -2 34 -2 38 1 11 7 -15 38 -54 66 -24 16 -28 17
-28 4z"/>
<path d="M2840 2970 c0 -5 4 -10 9 -10 6 0 13 5 16 10 3 6 -1 10 -9 10 -9 0
-16 -4 -16 -10z"/>
<path d="M3637 2824 c3 -7 9 -14 14 -14 14 0 10 17 -5 23 -10 4 -13 1 -9 -9z"/>
<path d="M3792 2818 c-13 -17 -13 -89 0 -105 6 -8 8 -40 5 -78 l-6 -66 25 37
c27 39 28 63 8 182 -7 44 -14 51 -32 30z"/>
<path d="M3290 2679 c0 -5 -4 -7 -10 -4 -5 3 -10 1 -10 -4 0 -16 16 -13 30 4
9 10 9 15 1 15 -6 0 -11 -5 -11 -11z"/>
<path d="M3315 2670 c-3 -5 1 -10 10 -10 9 0 13 5 10 10 -3 6 -8 10 -10 10 -2
0 -7 -4 -10 -10z"/>
<path d="M4121 2606 c-8 -9 -11 -19 -7 -23 9 -9 29 13 24 27 -2 8 -8 7 -17 -4z"/>
</g>
</svg>
