<?xml version="1.0" standalone="no"?>
<!DOCTYPE svg PUBLIC "-//W3C//DTD SVG 20010904//EN"
 "http://www.w3.org/TR/2001/REC-SVG-20010904/DTD/svg10.dtd">
<svg version="1.0" xmlns="http://www.w3.org/2000/svg"
 width="800.000000pt" height="800.000000pt" viewBox="0 0 800.000000 800.000000"
 preserveAspectRatio="xMidYMid meet">
<metadata>
Created by potrace 1.14, written by Peter Selinger 2001-2017
</metadata>
<g transform="translate(0.000000,800.000000) scale(0.100000,-0.100000)"
fill="#000000" stroke="none">
<path d="M3758 7995 c-2 -1 -44 -6 -95 -9 -50 -4 -102 -9 -115 -11 -13 -2 -50
-6 -82 -10 -32 -3 -62 -7 -65 -9 -3 -2 -31 -7 -61 -11 -30 -3 -71 -10 -90 -15
-19 -5 -53 -12 -74 -16 -59 -9 -306 -73 -351 -90 -22 -9 -41 -15 -43 -14 -2 1
-15 -3 -30 -8 -15 -6 -85 -32 -157 -58 -389 -141 -784 -369 -1136 -655 -116
-95 -393 -365 -488 -475 -445 -521 -749 -1136 -886 -1794 -13 -63 -27 -135
-30 -160 -4 -25 -9 -54 -11 -65 -48 -256 -53 -847 -9 -1125 3 -25 8 -56 10
-70 28 -190 89 -447 148 -630 168 -513 426 -973 777 -1381 73 -86 328 -341
415 -416 567 -488 1269 -814 1990 -924 39 -6 88 -12 110 -15 22 -2 49 -6 60
-8 116 -27 705 -28 910 -1 17 2 54 7 84 10 30 3 57 7 60 9 3 2 31 7 61 11 30
3 71 10 90 15 19 5 53 12 74 16 70 11 299 72 426 114 428 142 826 352 1180
624 58 44 110 85 116 91 6 5 41 35 77 65 77 65 341 330 412 414 330 390 567
801 741 1283 19 54 37 107 39 118 3 11 9 31 15 45 8 22 46 167 55 210 2 8 8
33 14 55 12 46 37 170 46 235 4 25 9 54 11 65 53 282 53 889 -1 1195 -1 8 -8
49 -15 90 -53 331 -182 730 -339 1050 -55 113 -80 160 -151 285 -96 169 -292
442 -439 610 -51 58 -349 353 -407 402 -497 427 -1121 736 -1754 872 -175 37
-247 48 -485 76 -52 7 -601 15 -607 10z"/>
</g>
</svg>
