<svg xmlns="http://www.w3.org/2000/svg" xmlns:xlink="http://www.w3.org/1999/xlink" viewBox="0 0 186.1 186.7"><defs><radialGradient id="a" cx="-148.41" cy="-9.18" r="92.25" gradientTransform="rotate(-21.6 385.357 -695.743)" gradientUnits="userSpaceOnUse"><stop offset="0" stop-color="#a42523"/><stop offset="1" stop-color="#611205"/></radialGradient><radialGradient xlink:href="#a" id="b" cx="-243.85" cy="-124.41" r="61.35" gradientTransform="matrix(.84 -.54 .52 .81 414.95 108.4)"/></defs><path fill="url(#a)" fill-rule="evenodd" d="M158.6 210.58c-1.14.22-2.28.42-3.44.59a72.53 72.53 0 1 1 45.45-118.12l18.5-9.19a93.33 93.33 0 1 0-60.64 149.28c3.05-.44 6.05-1 9-1.75Z" transform="translate(-51.79 -47.41)"/><path fill="url(#b)" fill-rule="evenodd" d="M94.33 172.7a60.29 60.29 0 1 1 83.36 17.87 60.28 60.28 0 0 1-83.36-17.87Z" transform="translate(-51.79 -47.41)"/><path fill="#611205" d="m117.05 163.03 3.51-1.64 10.41 11.28-1.94-15.25 3.51-1.64 2.13 20.28-3.46 1.61Zm23.4-.61a9.77 9.77 0 1 1 13.8 1.1 9.75 9.75 0 0 1-13.8-1.1Zm2.74-2.56c2.29 2.66 6.15 3.39 8.89 1s2.33-6.47.25-8.87-6-3.57-8.87-1.09-2.5 6.35-.29 8.92Zm8.14-21.43 2.13-3.08 13 9.05 3.48-5 2.81 1.94-5.63 8.1Zm11.05-11.45-1.68 3.66-3.1-1.43 4.92-10.7 3.1 1.43-1.67 3.65 14.4 6.64-1.56 3.36Zm20.42-8.9-.88 4-17.2-11.49.71-3.22 20.41-3-.88 4-4 .51-1.58 7.18Zm-13.28-8 7.06 4.26 1.16-5.23Zm-2.79-14.05v-3.74l19.27.19v3.75Zm-.36-12.32-1.22-5.5c-.63-2.83-.53-4.55 0-5.7a6.95 6.95 0 0 1 8.33-3.23 4.81 4.81 0 0 1 2.69 2.54l6.07-5.6.85 3.83-7.66 6.83-.16-.71a5.63 5.63 0 0 0-1.41-3.11 3.67 3.67 0 0 0-3-.55 3.34 3.34 0 0 0-2.42 2 4.81 4.81 0 0 0 0 2.7l.48 2.14 15.48-3.43.81 3.67Zm-5.7-19.86-4.84-9.26 3-1.58 3.11 5.93 3.87-2-3-5.82 3-1.58 3.05 5.82 4.13-2.16-3.11-5.93 3-1.58 4.84 9.25Z"/><path fill="#fff" stroke="#fff" stroke-width=".5" d="M97.06 136.52a2.76 2.76 0 0 1-1.5.56 4.18 4.18 0 0 1-1.63-.25 6.33 6.33 0 0 1-1.52-.8 5.8 5.8 0 0 1-1.18-1.13 45.41 45.41 0 0 1-4.27-9.9q-2.31-6.91-5.07-18c-3.57-14.4-6.07-20.5-8.4-24.35-3.48-5.78-12.64-.8-14.12 10.39-1.2 9 .53 18.11 5.9 18.26.65 0 1.41-.62 1.8-.85s.83-.31 1 0a1.15 1.15 0 0 1-.39 1.58 5.14 5.14 0 0 1-3 .51c-7.66-.84-9-12.55-7.3-21.41 2.15-11.08 10-13.08 12.26-12.86a8.43 8.43 0 0 1 5.75 3.18c1.44 1.63 3.18 5 4.67 9.29s2.45 7.59 4.35 14.53q5.91 22.35 8.87 27.87a8.46 8.46 0 0 0 1.44 1.88c.75.7 1.33.9 1.73.59s.6-1 .59-2.15q.07-15.09.67-26.7t1.64-19.86q3.58-27.08 13.2-34.43a15.47 15.47 0 0 1 3.79-2.15c.78-.1 1.2-.1 1.27 0s-.06.47-.71.75-1 .51-1.43.78a14.64 14.64 0 0 0-1.26.85q-7 5.35-10.74 21.77a129.73 129.73 0 0 0-2.47 13.9q-1 7.86-1.53 17.64-.36 6.9-.61 13.75t-.57 13.81a3.82 3.82 0 0 1-1.23 2.95Z"/></svg>